<svg width="29" height="29" viewBox="0 0 29 29" fill="none" xmlns="http://www.w3.org/2000/svg">
<path fill-rule="evenodd" clip-rule="evenodd" d="M16.0966 25.08L21.1882 19.9884C22.5307 18.6458 23.445 16.9352 23.8154 15.073C24.1858 13.2108 23.9956 11.2806 23.269 9.52647C22.5424 7.77233 21.3119 6.27304 19.7332 5.2182C18.1545 4.16336 16.2985 3.60034 14.3998 3.60034C12.5011 3.60034 10.6451 4.16336 9.06639 5.2182C7.48768 6.27304 6.25723 7.77233 5.53061 9.52647C4.804 11.2806 4.61386 13.2108 4.98423 15.073C5.35461 16.9352 6.26887 18.6458 7.61141 19.9884L12.7042 25.08C12.9269 25.3029 13.1913 25.4797 13.4823 25.6003C13.7734 25.721 14.0854 25.7831 14.4004 25.7831C14.7155 25.7831 15.0274 25.721 15.3185 25.6003C15.6095 25.4797 15.8739 25.3029 16.0966 25.08ZM17.9998 13.2001C17.9998 14.1549 17.6205 15.0706 16.9454 15.7457C16.2703 16.4208 15.3546 16.8001 14.3998 16.8001C13.445 16.8001 12.5294 16.4208 11.8542 15.7457C11.1791 15.0706 10.7998 14.1549 10.7998 13.2001C10.7998 12.2453 11.1791 11.3296 11.8542 10.6545C12.5294 9.97938 13.445 9.6001 14.3998 9.6001C15.3546 9.6001 16.2703 9.97938 16.9454 10.6545C17.6205 11.3296 17.9998 12.2453 17.9998 13.2001Z" fill="#2B62EC"/>
</svg>
