<?xml version="1.0" standalone="no"?>
<!DOCTYPE svg PUBLIC "-//W3C//DTD SVG 1.1//EN" "http://www.w3.org/Graphics/SVG/1.1/DTD/svg11.dtd" >
<svg xmlns="http://www.w3.org/2000/svg">
<metadata>Generated by IcoMoon</metadata>
<defs>
<font id="icomoon" horiz-adv-x="1024">
<font-face units-per-em="1024" ascent="960" descent="-64" />
<missing-glyph horiz-adv-x="1024" />
<glyph unicode="&#x20;" horiz-adv-x="512" d="" />
<glyph unicode="&#xe900;" glyph-name="users" d="M896 18.773h-768c-23.564 0-42.667 19.103-42.667 42.667v0 42.667c0 0.007 0 0.014 0 0.022 0 82.469 33.425 157.132 87.467 211.179v0c53.379 52.761 126.793 85.353 207.82 85.353 1.188 0 2.375-0.007 3.56-0.021l-0.18 0.002c46.533-0.066 90.551-10.763 129.778-29.791l-1.778 0.778c37.467 18.192 81.499 28.826 128.015 28.826 109.89 0 205.919-59.348 257.782-147.74l0.763-1.406c25.187-42.831 40.076-94.34 40.107-149.325v-42.675c-1.168-22.628-19.8-40.533-42.613-40.533-0.019 0-0.037 0-0.056 0h0.003zM682.667 104.107h170.667c-0.096 78.624-42.709 147.273-106.078 184.2l-1.015 0.546c-30.482 17.796-67.106 28.303-106.183 28.303-15.277 0-30.179-1.606-44.546-4.658l1.396 0.248c52.836-53.68 85.53-127.32 85.76-208.596v-0.044zM170.667 104.107h426.667c-0.135 58.856-24.082 112.093-62.715 150.608l-0.005 0.005c-38.604 38.592-91.928 62.461-150.827 62.461s-112.223-23.869-150.827-62.462l0.001 0.001c-38.482-38.576-62.28-91.814-62.293-150.611v-0.003zM640 445.44c-48.178 0.876-92.485 16.742-128.642 43.113l0.642-0.446c-35.21-26.637-79.733-42.667-128-42.667-117.821 0-213.333 95.513-213.333 213.333s95.513 213.333 213.333 213.333v0c0.254 0.001 0.554 0.002 0.854 0.002 47.988 0 92.231-16.037 127.66-43.044l-0.514 0.376c21.871 16.448 47.718 28.977 75.758 35.957l1.468 0.309c15.645 4.213 33.608 6.633 52.136 6.633 27.302 0 53.377-5.255 77.268-14.808l-1.403 0.495c81.163-31.41 137.675-108.839 137.675-199.467s-56.512-168.057-136.22-198.97l-1.455-0.497c-22.4-8.916-48.358-14.087-75.523-14.087-0.599 0-1.197 0.003-1.795 0.008l0.092-0.001zM570.453 552.107c11.467-7.836 24.873-13.873 39.284-17.327l0.823-0.166c9.398-2.541 20.188-4.001 31.319-4.001 16.048 0 31.386 3.034 45.474 8.56l-0.846-0.292c48.854 18.768 82.899 65.304 82.899 119.791 0 26.975-8.344 52.001-22.592 72.637l0.28-0.428c-14.839 21.389-35.508 37.795-59.71 47.065l-0.877 0.295c-13.359 5.379-28.849 8.499-45.067 8.499-10.818 0-21.312-1.388-31.313-3.997l0.861 0.191c-16.173-3.615-30.45-9.815-43.143-18.216l0.476 0.296c17.969-30.598 28.581-67.393 28.581-106.667s-10.613-76.068-29.126-107.673l0.545 1.007zM384 786.773c-70.692 0-128-57.308-128-128v0c0.134-35.374 14.269-67.42 37.148-90.908l-0.028 0.028c23.577-22.368 55.515-36.125 90.667-36.125s67.090 13.757 90.725 36.18l-0.058-0.055c23.386 23.2 37.863 55.349 37.863 90.88 0 70.692-57.308 128-128 128-0.111 0-0.222 0-0.333 0h0.017z" />
<glyph unicode="&#xe901;" glyph-name="adjustments" d="M256 832c23.564 0 42.667-19.103 42.667-42.667v-391.322c17.83-6.302 34.215-16.542 47.843-30.17 24.005-24.004 37.49-56.563 37.49-90.509s-13.486-66.505-37.49-90.509c-13.628-13.628-30.013-23.868-47.843-30.17v-49.988c0-23.565-19.103-42.667-42.667-42.667s-42.667 19.102-42.667 42.667v49.988c-17.83 6.302-34.215 16.542-47.843 30.17-24.005 24.004-37.49 56.563-37.49 90.509s13.486 66.505 37.49 90.509c13.628 13.628 30.013 23.868 47.843 30.17v391.322c0 23.564 19.103 42.667 42.667 42.667zM512 832c23.565 0 42.667-19.103 42.667-42.667v-49.987c17.83-6.304 34.214-16.542 47.842-30.17 24.004-24.005 37.491-56.562 37.491-90.51s-13.487-66.505-37.491-90.509c-13.628-13.628-30.012-23.868-47.842-30.17v-391.322c0-23.565-19.102-42.667-42.667-42.667s-42.667 19.102-42.667 42.667v391.322c-17.83 6.302-34.214 16.542-47.843 30.17-24.005 24.004-37.49 56.561-37.49 90.509s13.486 66.505 37.49 90.51c13.629 13.628 30.013 23.866 47.843 30.17v49.987c0 23.564 19.102 42.667 42.667 42.667zM768 832c23.565 0 42.667-19.103 42.667-42.667v-391.322c17.83-6.302 34.214-16.542 47.842-30.17 24.004-24.004 37.491-56.559 37.491-90.509s-13.487-66.505-37.491-90.509c-13.628-13.628-30.012-23.868-47.842-30.17v-49.988c0-23.565-19.102-42.667-42.667-42.667s-42.667 19.102-42.667 42.667v49.988c-17.83 6.302-34.214 16.542-47.842 30.17-24.004 24.004-37.491 56.559-37.491 90.509s13.487 66.505 37.491 90.509c13.628 13.628 30.012 23.868 47.842 30.17v391.322c0 23.564 19.102 42.667 42.667 42.667zM512 661.333c-11.315 0-22.17-4.495-30.17-12.497s-12.497-18.854-12.497-30.17c0-11.316 4.497-22.168 12.497-30.17s18.854-12.497 30.17-12.497c11.315 0 22.17 4.495 30.17 12.497s12.497 18.854 12.497 30.17c0 11.316-4.497 22.168-12.497 30.17s-18.854 12.497-30.17 12.497zM256 320c-11.316 0-22.168-4.497-30.17-12.497s-12.497-18.854-12.497-30.17c0-11.315 4.495-22.17 12.497-30.17s18.854-12.497 30.17-12.497c11.316 0 22.168 4.497 30.17 12.497s12.497 18.854 12.497 30.17c0 11.315-4.495 22.17-12.497 30.17s-18.854 12.497-30.17 12.497zM768 320c-11.315 0-22.17-4.497-30.17-12.497s-12.497-18.854-12.497-30.17c0-11.315 4.497-22.17 12.497-30.17s18.854-12.497 30.17-12.497c11.315 0 22.17 4.497 30.17 12.497s12.497 18.854 12.497 30.17c0 11.315-4.497 22.17-12.497 30.17s-18.854 12.497-30.17 12.497z" />
<glyph unicode="&#xe902;" glyph-name="annotation" d="M213.333 746.667c-11.316 0-22.168-4.495-30.17-12.497s-12.497-18.854-12.497-30.17v-341.333c0-11.315 4.495-22.17 12.497-30.17s18.854-12.497 30.17-12.497h128c11.316 0 22.168-4.497 30.17-12.497l140.497-140.497 140.497 140.497c8 8 18.854 12.497 30.17 12.497h128c11.315 0 22.17 4.497 30.17 12.497s12.497 18.854 12.497 30.17v341.333c0 11.316-4.497 22.168-12.497 30.17s-18.854 12.497-30.17 12.497h-597.333zM122.824 794.51c24.005 24.005 56.562 37.49 90.51 37.49h597.333c33.95 0 66.505-13.486 90.509-37.49s37.491-56.562 37.491-90.51v-341.333c0-33.95-13.487-66.505-37.491-90.509s-56.559-37.491-90.509-37.491h-110.327l-158.17-158.17c-16.661-16.661-43.678-16.661-60.339 0l-158.17 158.17h-110.327c-33.948 0-66.505 13.487-90.51 37.491s-37.49 56.563-37.49 90.509v341.333c0 33.948 13.486 66.505 37.49 90.51zM256 618.667c0 23.564 19.103 42.667 42.667 42.667h426.667c23.565 0 42.667-19.103 42.667-42.667s-19.102-42.667-42.667-42.667h-426.667c-23.564 0-42.667 19.103-42.667 42.667zM256 448c0 23.565 19.103 42.667 42.667 42.667h170.667c23.565 0 42.667-19.102 42.667-42.667s-19.102-42.667-42.667-42.667h-170.667c-23.564 0-42.667 19.102-42.667 42.667z" />
<glyph unicode="&#xe903;" glyph-name="archive" d="M213.333 746.667c-11.316 0-22.168-4.495-30.17-12.497s-12.497-18.854-12.497-30.17c0-11.316 4.495-22.168 12.497-30.17s18.854-12.497 30.17-12.497h597.333c11.315 0 22.17 4.495 30.17 12.497s12.497 18.854 12.497 30.17c0 11.316-4.497 22.168-12.497 30.17s-18.854 12.497-30.17 12.497h-597.333zM122.824 794.51c24.005 24.005 56.562 37.49 90.51 37.49h597.333c33.95 0 66.505-13.486 90.509-37.49s37.491-56.562 37.491-90.51c0-33.948-13.487-66.505-37.491-90.51-13.628-13.628-30.012-23.866-47.842-30.17v-391.32c0-33.95-13.487-66.505-37.491-90.509s-56.559-37.491-90.509-37.491h-426.667c-33.948 0-66.505 13.487-90.51 37.491s-37.49 56.563-37.49 90.509v391.32c-17.83 6.304-34.215 16.542-47.843 30.17-24.005 24.005-37.49 56.562-37.49 90.51s13.486 66.505 37.49 90.51zM256 576v-384c0-11.315 4.495-22.17 12.497-30.17s18.854-12.497 30.17-12.497h426.667c11.315 0 22.17 4.497 30.17 12.497s12.497 18.854 12.497 30.17v384h-512zM384 448c0 23.565 19.103 42.667 42.667 42.667h170.667c23.565 0 42.667-19.102 42.667-42.667s-19.102-42.667-42.667-42.667h-170.667c-23.564 0-42.667 19.102-42.667 42.667z" />
<glyph unicode="&#xe904;" glyph-name="arrow-circle-down" d="M512 789.333c-44.826 0-89.21-8.829-130.623-25.982s-79.041-42.296-110.736-73.992c-31.696-31.695-56.838-69.324-73.992-110.736s-25.982-85.797-25.982-130.623c0-44.826 8.829-89.212 25.982-130.624s42.296-79.040 73.992-110.737c31.696-31.693 69.324-56.836 110.736-73.988 41.413-17.156 85.797-25.984 130.623-25.984 90.526 0 177.348 35.964 241.361 99.972 64.009 64.013 99.972 150.835 99.972 241.361 0 90.527-35.964 177.347-99.972 241.359-64.013 64.013-150.835 99.974-241.361 99.974zM348.722 842.189c51.765 21.442 107.248 32.478 163.278 32.478 113.161 0 221.683-44.952 301.7-124.968 80.013-80.016 124.966-188.54 124.966-301.699 0-113.161-44.954-221.683-124.966-301.7-80.017-80.013-188.54-124.966-301.7-124.966-56.030 0-111.513 11.038-163.278 32.478-51.766 21.444-98.801 52.868-138.421 92.489s-71.048 86.656-92.49 138.423c-21.442 51.763-32.478 107.247-32.478 163.277s11.036 111.513 32.478 163.278c21.442 51.766 52.87 98.801 92.49 138.421s86.655 71.048 138.421 92.49zM512 661.333c23.565 0 42.667-19.103 42.667-42.667v-238.327l55.164 55.164c16.661 16.661 43.678 16.661 60.339 0s16.661-43.678 0-60.339l-128-128c-16.661-16.661-43.678-16.661-60.339 0l-128 128c-16.662 16.661-16.662 43.678 0 60.339s43.677 16.661 60.34 0l55.163-55.164v238.327c0 23.564 19.102 42.667 42.667 42.667z" />
<glyph unicode="&#xe905;" glyph-name="arrow-circle-left" d="M512 789.333c-44.826 0-89.21-8.829-130.623-25.982s-79.041-42.296-110.736-73.992c-31.696-31.695-56.838-69.324-73.992-110.736s-25.982-85.797-25.982-130.623c0-90.526 35.962-177.348 99.974-241.361 64.012-64.009 150.832-99.972 241.359-99.972 90.526 0 177.348 35.964 241.361 99.972 64.009 64.013 99.972 150.835 99.972 241.361 0 44.826-8.828 89.21-25.984 130.623-17.152 41.412-42.295 79.040-73.988 110.736-31.697 31.696-69.325 56.838-110.737 73.992s-85.798 25.982-130.624 25.982zM348.722 842.189c51.765 21.442 107.248 32.478 163.278 32.478s111.514-11.036 163.277-32.478c51.767-21.442 98.803-52.87 138.423-92.49s71.044-86.655 92.489-138.421c21.44-51.765 32.478-107.248 32.478-163.278 0-113.161-44.954-221.683-124.966-301.7-80.017-80.013-188.54-124.966-301.7-124.966-113.159 0-221.683 44.954-301.699 124.966-80.015 80.017-124.968 188.54-124.968 301.7 0 56.030 11.036 111.513 32.478 163.278s52.87 98.801 92.49 138.421c39.62 39.619 86.655 71.048 138.421 92.49zM499.503 606.17c16.661-16.663 16.661-43.677 0-60.34l-55.164-55.163h238.327c23.565 0 42.667-19.102 42.667-42.667s-19.102-42.667-42.667-42.667h-238.327l55.164-55.164c16.661-16.661 16.661-43.678 0-60.339s-43.678-16.661-60.339 0l-128 128c-16.662 16.661-16.662 43.678 0 60.339l128 128c16.661 16.662 43.678 16.662 60.339 0z" />
<glyph unicode="&#xe906;" glyph-name="arrow-circle-right" d="M512 789.333c-90.527 0-177.347-35.962-241.359-99.974s-99.974-150.832-99.974-241.359c0-44.826 8.829-89.212 25.982-130.624s42.296-79.040 73.992-110.737c31.695-31.693 69.324-56.836 110.736-73.988 41.413-17.156 85.797-25.984 130.623-25.984s89.212 8.828 130.624 25.984c41.412 17.152 79.040 42.295 110.737 73.988 31.693 31.697 56.836 69.325 73.988 110.737 17.156 41.412 25.984 85.798 25.984 130.624 0 90.527-35.964 177.347-99.972 241.359-64.013 64.013-150.835 99.974-241.361 99.974zM210.301 749.699c80.016 80.015 188.54 124.968 301.699 124.968 113.161 0 221.683-44.952 301.7-124.968 80.013-80.016 124.966-188.54 124.966-301.699 0-56.030-11.038-111.514-32.478-163.277-21.444-51.767-52.868-98.803-92.489-138.423s-86.656-71.044-138.423-92.489c-51.763-21.44-107.247-32.478-163.277-32.478s-111.513 11.038-163.278 32.478c-51.766 21.444-98.801 52.868-138.421 92.489s-71.048 86.656-92.49 138.423c-21.442 51.763-32.478 107.247-32.478 163.277 0 113.159 44.952 221.683 124.968 301.699zM524.497 606.17c16.661 16.662 43.678 16.662 60.339 0l128-128c16.661-16.661 16.661-43.678 0-60.339l-128-128c-16.661-16.661-43.678-16.661-60.339 0s-16.661 43.678 0 60.339l55.164 55.164h-238.327c-23.564 0-42.667 19.102-42.667 42.667s19.103 42.667 42.667 42.667h238.327l-55.164 55.163c-16.661 16.663-16.661 43.677 0 60.34z" />
<glyph unicode="&#xe907;" glyph-name="arrow-circle-up" d="M512 789.333c-90.527 0-177.347-35.962-241.359-99.974s-99.974-150.832-99.974-241.359c0-90.526 35.962-177.348 99.974-241.361 64.012-64.009 150.832-99.972 241.359-99.972 44.826 0 89.212 8.828 130.624 25.984 41.412 17.152 79.040 42.295 110.737 73.988 31.693 31.697 56.836 69.325 73.988 110.737 17.156 41.412 25.984 85.798 25.984 130.624s-8.828 89.21-25.984 130.623c-17.152 41.412-42.295 79.041-73.988 110.736-31.697 31.696-69.325 56.838-110.737 73.992s-85.798 25.982-130.624 25.982zM210.301 749.699c80.016 80.015 188.54 124.968 301.699 124.968 56.030 0 111.514-11.036 163.277-32.478 51.767-21.442 98.803-52.87 138.423-92.49s71.044-86.655 92.489-138.421c21.44-51.765 32.478-107.248 32.478-163.278s-11.038-111.514-32.478-163.277c-21.444-51.767-52.868-98.803-92.489-138.423s-86.656-71.044-138.423-92.489c-51.763-21.44-107.247-32.478-163.277-32.478-113.159 0-221.683 44.954-301.699 124.966-80.015 80.017-124.968 188.54-124.968 301.7 0 113.159 44.952 221.683 124.968 301.699zM469.333 515.661l-55.163-55.164c-16.663-16.661-43.677-16.661-60.34 0s-16.662 43.678 0 60.339l128 128c16.661 16.662 43.678 16.662 60.339 0l128-128c16.661-16.661 16.661-43.678 0-60.339s-43.678-16.661-60.339 0l-55.164 55.164v-238.327c0-23.565-19.102-42.667-42.667-42.667s-42.667 19.102-42.667 42.667v238.327z" />
<glyph unicode="&#xe908;" glyph-name="arrow-down" d="M512 874.667c23.565 0 42.667-19.103 42.667-42.667v-664.994l225.83 225.83c16.661 16.661 43.678 16.661 60.339 0s16.661-43.678 0-60.339l-298.667-298.667c-16.661-16.661-43.678-16.661-60.339 0l-298.667 298.667c-16.662 16.661-16.662 43.678 0 60.339s43.677 16.661 60.34 0l225.83-225.83v664.994c0 23.564 19.102 42.667 42.667 42.667z" />
<glyph unicode="&#xe909;" glyph-name="arrow-left" d="M456.836 776.837c16.661-16.663 16.661-43.677 0-60.34l-225.83-225.83h664.994c23.565 0 42.667-19.102 42.667-42.667s-19.102-42.667-42.667-42.667h-664.994l225.83-225.83c16.661-16.661 16.661-43.678 0-60.339s-43.677-16.661-60.34 0l-298.667 298.667c-16.662 16.661-16.662 43.678 0 60.339l298.667 298.667c16.663 16.662 43.678 16.662 60.34 0z" />
<glyph unicode="&#xe90a;" glyph-name="arrow-narrow-down" d="M512 874.667c23.565 0 42.667-19.103 42.667-42.667v-664.994l97.83 97.83c16.661 16.661 43.678 16.661 60.339 0s16.661-43.678 0-60.339l-170.667-170.667c-16.661-16.661-43.678-16.661-60.339 0l-170.667 170.667c-16.662 16.661-16.662 43.678 0 60.339s43.677 16.661 60.34 0l97.83-97.83v664.994c0 23.564 19.102 42.667 42.667 42.667z" />
<glyph unicode="&#xe90b;" glyph-name="arrow-narrow-left" d="M328.837 648.837c16.662-16.663 16.662-43.677 0-60.34l-97.83-97.83h664.994c23.565 0 42.667-19.102 42.667-42.667s-19.102-42.667-42.667-42.667h-664.994l97.83-97.83c16.662-16.661 16.662-43.678 0-60.339s-43.677-16.661-60.34 0l-170.65 170.65c-0.006 0.004-0.011 0.013-0.017 0.017-0.030 0.030-0.060 0.060-0.090 0.090-4.046 4.070-7.102 8.751-9.169 13.747-2.086 5.030-3.238 10.547-3.238 16.333s1.152 11.302 3.238 16.333c2.082 5.030 5.169 9.745 9.259 13.837l170.667 170.667c16.663 16.662 43.677 16.662 60.34 0z" />
<glyph unicode="&#xe90c;" glyph-name="arrow-narrow-right" d="M695.164 648.837c16.661 16.662 43.678 16.662 60.339 0l170.667-170.667c16.661-16.661 16.661-43.678 0-60.339l-170.667-170.667c-16.661-16.661-43.678-16.661-60.339 0s-16.661 43.678 0 60.339l97.83 97.83h-664.994c-23.564 0-42.667 19.102-42.667 42.667s19.103 42.667 42.667 42.667h664.994l-97.83 97.83c-16.661 16.663-16.661 43.677 0 60.34z" />
<glyph unicode="&#xe90d;" glyph-name="arrow-narrow-up" d="M481.83 862.17c16.661 16.662 43.678 16.662 60.339 0l170.667-170.667c16.661-16.663 16.661-43.677 0-60.34s-43.678-16.662-60.339 0l-97.83 97.83v-664.994c0-23.565-19.102-42.667-42.667-42.667s-42.667 19.102-42.667 42.667v664.994l-97.83-97.83c-16.663-16.662-43.677-16.662-60.34 0s-16.662 43.677 0 60.34l170.667 170.667z" />
<glyph unicode="&#xe90e;" glyph-name="arrow-right" d="M567.164 776.837c16.661 16.662 43.678 16.662 60.339 0l298.667-298.667c16.661-16.661 16.661-43.678 0-60.339l-298.667-298.667c-16.661-16.661-43.678-16.661-60.339 0s-16.661 43.678 0 60.339l225.83 225.83h-664.994c-23.564 0-42.667 19.102-42.667 42.667s19.103 42.667 42.667 42.667h664.994l-225.83 225.83c-16.661 16.663-16.661 43.677 0 60.34z" />
<glyph unicode="&#xe90f;" glyph-name="arrows-expand" d="M851.627 64h-170.667c-11.315 0-22.165 4.497-30.17 12.497-8 8-12.497 18.854-12.497 30.17s4.497 22.17 12.497 30.17c8.004 8 18.854 12.497 30.17 12.497h67.413l-140.373 140.373c-7.945 7.996-12.407 18.807-12.407 30.080s4.463 22.084 12.407 30.080c7.996 7.949 18.812 12.407 30.080 12.407 11.273 0 22.089-4.459 30.080-12.407l140.8-140.373v67.84c0 11.315 4.497 22.17 12.497 30.17 8.004 8 18.854 12.497 30.17 12.497 11.319 0 22.17-4.497 30.17-12.497 8.004-8 12.497-18.854 12.497-30.17v-170.667c-0.017-5.444-1.182-10.82-3.413-15.787-2.155-5.274-5.346-10.061-9.387-14.080-3.785-4.117-8.452-7.326-13.653-9.387-5.158-2.039-10.667-3.055-16.213-2.987v-0.427zM339.628 64h-170.667c-5.091-0.043-10.148 0.823-14.933 2.56-5.081 2.278-9.707 5.457-13.653 9.387-4.038 4.019-7.229 8.806-9.387 14.080-2.748 4.988-4.351 10.526-4.693 16.213v0 170.667c0 11.315 4.495 22.17 12.497 30.17s18.854 12.497 30.17 12.497c11.316 0 22.168-4.497 30.17-12.497s12.497-18.854 12.497-30.17v-67.84l140.373 140.373c7.994 7.949 18.808 12.407 30.080 12.407s22.086-4.459 30.080-12.407c7.947-7.996 12.407-18.807 12.407-30.080s-4.46-22.084-12.407-30.080l-138.667-139.947h66.133c11.316 0 22.168-4.497 30.17-12.497s12.497-18.854 12.497-30.17c0-11.315-4.495-22.17-12.497-30.17s-18.854-12.497-30.17-12.497v0zM638.293 533.333c-8.384 0.035-16.576 2.541-23.548 7.205s-12.412 11.279-15.646 19.019c-3.23 7.739-4.113 16.26-2.53 24.496 1.587 8.237 5.559 15.824 11.43 21.814l140.373 140.8h-67.413c-11.315 0-22.165 4.495-30.17 12.497-8 8.002-12.497 18.854-12.497 30.17s4.497 22.168 12.497 30.17c8.004 8.001 18.854 12.497 30.17 12.497h170.667c5.577-0.067 11.085-1.227 16.213-3.413 5.201-2.060 9.869-5.269 13.653-9.387 4.117-3.786 7.326-8.453 9.387-13.653 2.189-5.129 3.349-10.638 3.413-16.213v-170.667c0-11.316-4.493-22.168-12.497-30.17-8-8.001-18.85-12.497-30.17-12.497-11.315 0-22.165 4.495-30.17 12.497-8 8.002-12.497 18.854-12.497 30.17v67.413l-140.8-140.373c-7.945-7.882-18.671-12.326-29.867-12.373zM382.295 533.333c-5.615-0.034-11.182 1.044-16.38 3.167s-9.926 5.252-13.913 9.206l-140.373 140.373v-67.413c0-11.316-4.495-22.168-12.497-30.17s-18.854-12.497-30.17-12.497c-11.316 0-22.168 4.495-30.17 12.497s-12.497 18.854-12.497 30.17v170.667c-0.068 5.547 0.946 11.055 2.987 16.213 2.060 5.2 5.269 9.868 9.387 13.653 3.946 3.928 8.572 7.108 13.653 9.387 5.262 2.242 10.921 3.402 16.64 3.413h170.667c11.316 0 22.168-4.495 30.17-12.497s12.497-18.854 12.497-30.17c0-11.316-4.495-22.168-12.497-30.17s-18.854-12.497-30.17-12.497h-66.133l140.373-140.8c7.947-7.994 12.407-18.808 12.407-30.080s-4.46-22.086-12.407-30.080c-4.138-4.111-9.074-7.33-14.505-9.458s-11.24-3.12-17.068-2.915z" />
<glyph unicode="&#xe910;" glyph-name="arrow-up" d="M481.83 862.17c16.661 16.662 43.678 16.662 60.339 0l298.667-298.667c16.661-16.663 16.661-43.678 0-60.34s-43.678-16.661-60.339 0l-225.83 225.83v-664.994c0-23.565-19.102-42.667-42.667-42.667s-42.667 19.102-42.667 42.667v664.994l-225.83-225.83c-16.663-16.661-43.677-16.661-60.34 0s-16.662 43.677 0 60.34l298.667 298.667z" />
<glyph unicode="&#xe911;" glyph-name="at-symbol" d="M428.762 866.468c82.765 16.463 168.555 8.014 246.515-24.28 77.965-32.294 144.602-86.98 191.484-157.145s71.906-152.657 71.906-237.043v-64c0-39.607-15.731-77.589-43.738-105.596s-65.988-43.738-105.596-43.738c-39.607 0-77.589 15.731-105.596 43.738-6.707 6.707-12.71 13.99-17.963 21.73-0.964-1.003-1.941-1.997-2.927-2.982-40.004-40.009-94.268-62.485-150.848-62.485s-110.842 22.477-150.849 62.485c-40.008 40.004-62.484 94.268-62.484 150.848s22.476 110.842 62.484 150.849c40.008 40.008 94.269 62.484 150.849 62.484s110.844-22.476 150.848-62.484c40.009-40.008 62.485-94.269 62.485-150.849v-64c0-16.973 6.741-33.254 18.743-45.257s28.284-18.743 45.257-18.743c16.973 0 33.254 6.741 45.257 18.743s18.743 28.284 18.743 45.257v64c0 67.507-20.019 133.502-57.523 189.635-37.508 56.132-90.816 99.881-153.186 125.716s-131.004 32.594-197.214 19.424c-66.213-13.17-127.033-45.679-174.769-93.416s-80.245-108.556-93.416-174.769c-13.17-66.21-6.411-134.844 19.424-197.214s69.584-115.678 125.716-153.186c56.132-37.504 122.127-57.523 189.635-57.523h0.043c59.913-0.060 118.758 15.693 170.569 45.709 20.39 11.81 46.494 4.86 58.308-15.531 11.81-20.39 4.86-46.494-15.531-58.308-64.866-37.581-138.5-57.276-213.431-57.203h0.043c-0.013 0-0.030 0-0.043 0-84.373 0.009-166.847 25.033-237.001 71.906-70.165 46.882-124.852 113.519-157.145 191.484-32.294 77.961-40.743 163.75-24.28 246.515s57.099 158.79 116.77 218.46c59.67 59.671 135.695 100.307 218.46 116.77zM640 448c0 33.946-13.487 66.505-37.491 90.51s-56.559 37.49-90.509 37.49c-33.946 0-66.505-13.486-90.51-37.49s-37.49-56.564-37.49-90.51c0-33.95 13.486-66.505 37.49-90.509s56.564-37.491 90.51-37.491c33.95 0 66.505 13.487 90.509 37.491s37.491 56.559 37.491 90.509z" />
<glyph unicode="&#xe912;" glyph-name="backspace" d="M371.494 751.834c23.999 24.003 56.551 37.492 90.492 37.499h348.681c33.95 0 66.505-13.486 90.509-37.49s37.491-56.562 37.491-90.51v-426.667c0-33.95-13.487-66.505-37.491-90.509s-56.559-37.491-90.509-37.491h-348.672c-33.941 0.009-66.502 13.495-90.501 37.5-0.001 0 0.002 0 0 0l-273.664 273.664c-16.662 16.661-16.662 43.678 0 60.339l273.664 273.664c0.002 0.001-0.001-0.002 0 0zM461.995 704c-11.311-0.005-22.157-4.501-30.157-12.501l-243.498-243.499 243.494-243.494c7.996-8 18.85-12.501 30.161-12.506 0.004 0-0.004 0 0 0h348.672c11.315 0 22.17 4.497 30.17 12.497s12.497 18.854 12.497 30.17v426.667c0 11.316-4.497 22.168-12.497 30.17s-18.854 12.497-30.17 12.497h-348.672c-0.004 0 0.004 0 0 0zM481.83 563.503c16.661 16.662 43.678 16.662 60.339 0l55.164-55.164 55.164 55.164c16.661 16.662 43.678 16.662 60.339 0s16.661-43.678 0-60.34l-55.164-55.164 55.164-55.164c16.661-16.661 16.661-43.678 0-60.339s-43.678-16.661-60.339 0l-55.164 55.164-55.164-55.164c-16.661-16.661-43.678-16.661-60.339 0s-16.661 43.678 0 60.339l55.164 55.164-55.164 55.164c-16.661 16.661-16.661 43.677 0 60.34z" />
<glyph unicode="&#xe913;" glyph-name="badge-check" d="M507.311 28.587c-44.902 0.017-88.321 16.055-122.454 45.227-16.588 14.084-37.187 22.592-58.88 24.32-44.246 4.083-85.629 23.654-116.853 55.27-31.224 31.612-50.282 73.237-53.814 117.53-1.92 21.645-10.405 42.189-24.32 58.88-29.199 34.035-45.251 77.397-45.251 122.24s16.052 88.205 45.251 122.24c13.915 16.691 22.4 37.234 24.32 58.88 3.564 44.652 22.834 86.597 54.391 118.388s73.358 51.372 117.982 55.265v0c21.742 1.521 42.403 10.054 58.88 24.32 34.508 28.175 77.692 43.565 122.24 43.565s87.731-15.389 122.24-43.565c16.478-14.266 37.137-22.799 58.88-24.32 44.77-3.52 86.814-22.9 118.571-54.656s51.136-73.8 54.656-118.571c1.519-21.741 10.057-42.402 24.32-58.88 28.954-34.149 44.847-77.47 44.847-122.24 0-44.774-15.893-88.090-44.847-122.24-14.263-16.478-22.801-37.137-24.32-58.88-3.78-44.582-23.108-86.417-54.613-118.187-31.706-31.842-73.805-51.226-118.613-54.613-21.692-1.728-42.291-10.236-58.88-24.32-34.406-29.615-78.34-45.824-123.733-45.653zM336.644 721.493c-25.016-1.396-48.662-11.877-66.496-29.475s-28.629-41.103-30.358-66.097c-2.807-39.251-17.713-76.666-42.667-107.093-16.020-18.637-24.803-42.411-24.747-66.987-0.212-24.602 8.591-48.431 24.747-66.987 25.035-30.545 39.946-68.122 42.667-107.52 1.815-24.512 12.421-47.543 29.867-64.853 17.421-17.289 40.391-27.866 64.853-29.867 39.444-2.522 77.079-17.455 107.52-42.667 18.799-15.501 42.406-23.979 66.773-23.979s47.974 8.478 66.773 23.979c30.438 25.212 68.075 40.145 107.52 42.667 24.461 2.001 47.433 12.578 64.853 29.867 17.446 17.31 28.053 40.341 29.867 64.853 2.722 39.398 17.63 76.975 42.667 107.52 17.596 18.261 27.648 42.487 28.16 67.84 0.055 24.576-8.725 48.35-24.747 66.987-24.951 30.427-39.859 67.843-42.667 107.093-1.865 24.502-12.446 47.525-29.82 64.9-17.378 17.376-40.401 27.954-64.9 29.82-39.249 2.807-76.668 17.714-107.093 42.667-18.867 15.535-42.547 24.029-66.987 24.029s-48.119-8.495-66.987-24.029c-30.981-25.133-68.994-40.040-108.8-42.667v0zM464.644 324.693c-5.615-0.034-11.183 1.045-16.38 3.166-5.201 2.125-9.929 5.252-13.914 9.207l-85.334 85.333c-6.99 8.162-10.642 18.662-10.228 29.397 0.415 10.739 4.867 20.928 12.465 28.527s17.785 12.049 28.523 12.463c10.738 0.414 21.237-3.238 29.399-10.227l55.467-55.040 140.373 140.373c8.162 6.99 18.662 10.642 29.397 10.228 10.739-0.415 20.928-4.867 28.527-12.465s12.049-17.785 12.463-28.523c0.414-10.737-3.238-21.237-10.227-29.399l-170.667-170.667c-7.949-7.881-18.675-12.326-29.867-12.373v0z" />
<glyph unicode="&#xe914;" glyph-name="badge-check_solid" d="M320.87 783.104c32.935 2.63 64.2 15.584 89.344 37.018 28.4 24.187 64.483 37.471 101.786 37.471s73.387-13.284 101.786-37.471c25.143-21.434 56.41-34.388 89.344-37.018 37.193-2.973 72.111-19.096 98.496-45.479 26.381-26.383 42.505-61.302 45.478-98.495 2.611-32.922 15.565-64.205 37.018-89.344 24.188-28.399 37.47-64.483 37.47-101.786s-13.282-73.387-37.47-101.786c-21.436-25.143-34.389-56.41-37.018-89.344-2.974-37.193-19.098-72.111-45.478-98.496-26.385-26.381-61.303-42.505-98.496-45.478-32.934-2.628-64.201-15.582-89.344-37.018-28.399-24.188-64.482-37.47-101.786-37.47s-73.387 13.282-101.786 37.47c-25.144 21.436-56.409 34.389-89.344 37.018-37.193 2.974-72.112 19.098-98.495 45.478-26.384 26.385-42.507 61.303-45.479 98.496-2.63 32.934-15.584 64.201-37.018 89.344-24.187 28.399-37.471 64.482-37.471 101.786s13.284 73.387 37.471 101.786c21.434 25.143 34.388 56.409 37.018 89.344 2.973 37.193 19.095 72.112 45.479 98.495s61.302 42.507 98.495 45.479v0zM701.798 514.202c9.327 9.655 14.485 22.59 14.37 36.015s-5.5 26.266-14.993 35.759c-9.493 9.493-22.336 14.877-35.759 14.994-13.427 0.116-26.359-5.044-36.015-14.371l-168.602-168.602-66.202 66.202c-9.656 9.327-22.59 14.485-36.014 14.37s-26.266-5.5-35.759-14.993c-9.493-9.493-14.878-22.336-14.994-35.759s5.044-26.359 14.371-36.015l102.4-102.4c9.601-9.6 22.623-14.989 36.199-14.989s26.594 5.389 36.198 14.989l204.8 204.8z" />
<glyph unicode="&#xe915;" glyph-name="bell" d="M421.492 837.176c24.004 24.005 56.563 37.49 90.508 37.49 33.95 0 66.505-13.486 90.509-37.49 20.608-20.607 33.463-47.516 36.689-76.197 46.537-21.915 86.793-55.56 116.681-97.84 35.652-50.444 54.797-110.7 54.788-172.472 0 0 0 0 0 0v-134.741c0-5.781 1.139-11.516 3.349-16.858 2.214-5.342 5.453-10.197 9.54-14.285 0.004 0 0 0 0 0l59.947-59.947c12.203-12.203 15.855-30.554 9.25-46.498s-22.161-26.338-39.42-26.338h-170.667c0-45.265-17.98-88.674-49.984-120.678-32.009-32.009-75.418-49.988-120.683-49.988-45.261 0-88.672 17.98-120.678 49.988-32.006 32.004-49.987 75.413-49.987 120.678h-170.667c-17.257 0-32.815 10.394-39.419 26.338s-2.954 34.295 9.249 46.498l59.947 59.947c8.255 8.256 12.89 19.46 12.89 31.1v134.784c0 119.497 70.192 222.541 171.468 270.304 3.225 28.684 16.080 55.597 36.689 76.206zM426.667 192c0-22.63 8.99-44.335 24.994-60.339s37.709-24.994 60.339-24.994c22.635 0 44.339 8.99 60.339 24.994 16.004 16.004 24.994 37.709 24.994 60.339h-170.667zM512 789.333c-11.315 0-22.165-4.495-30.17-12.497-8-8.002-12.497-18.854-12.497-30.17v-14.549c0-18.080-11.396-34.197-28.442-40.225-82.905-29.32-142.224-108.426-142.224-201.225v-134.784c0-28.527-9.442-56.115-26.598-78.549h479.866c-6.814 8.909-12.454 18.684-16.759 29.090-6.498 15.693-9.843 32.516-9.843 49.502 0 0.004 0-0.004 0 0v134.741c0.009 44.13-13.666 87.181-39.138 123.217s-61.491 63.29-103.091 78.010c-17.045 6.030-28.437 22.145-28.437 40.223v14.549c0 11.316-4.493 22.168-12.497 30.17-8 8.001-18.854 12.497-30.17 12.497z" />
<glyph unicode="&#xe916;" glyph-name="bookmark" d="M298.667 789.333c-11.316 0-22.168-4.495-30.17-12.497s-12.497-18.854-12.497-30.17v-613.632l236.919 118.46c12.011 6.007 26.15 6.007 38.161 0l236.919-118.46v613.632c0 11.316-4.497 22.168-12.497 30.17s-18.854 12.497-30.17 12.497h-426.667zM208.157 837.176c24.005 24.005 56.562 37.49 90.51 37.49h426.667c33.946 0 66.505-13.486 90.509-37.49s37.491-56.562 37.491-90.51v-682.667c0-14.788-7.659-28.518-20.237-36.297-12.578-7.774-28.284-8.478-41.51-1.865l-279.586 139.793-279.586-139.793c-13.226-6.613-28.933-5.909-41.512 1.865-12.579 7.778-20.236 21.508-20.236 36.297v682.667c0 33.948 13.486 66.505 37.49 90.51z" />
<glyph unicode="&#xe917;" glyph-name="bookmark_solid" d="M256 755.2c0 27.158 10.789 53.204 29.992 72.407s45.25 29.993 72.408 29.993h307.2c27.157 0 53.205-10.789 72.41-29.993 19.2-19.203 29.99-45.249 29.99-72.407v-716.8l-256 128-256-128v716.8z" />
<glyph unicode="&#xe918;" glyph-name="book-open" d="M104.389 728.744c57.615 38.278 133.706 60.59 215.611 60.59 71.155 0 137.924-16.839 192-46.358 54.076 29.519 120.845 46.358 192 46.358 81.95 0 157.999-22.313 215.612-60.59 11.9-7.908 19.055-21.249 19.055-35.538v-554.667c0-15.723-8.649-30.174-22.502-37.602-13.858-7.428-30.677-6.639-43.776 2.065-42.057 27.942-101.261 46.332-168.388 46.332-67.089 0-126.336-18.394-168.388-46.332-14.306-9.506-32.917-9.506-47.223 0-42.052 27.938-101.301 46.332-168.388 46.332s-126.334-18.394-168.389-46.332c-13.096-8.704-29.917-9.493-43.773-2.065s-22.504 21.879-22.504 37.602v554.667c0 14.289 7.153 27.631 19.056 35.538zM469.333 669.035c-40.094 21.454-91.833 34.965-149.333 34.965s-109.241-13.511-149.333-34.965v-461.082c44.962 17.22 95.911 26.714 149.333 26.714s104.371-9.493 149.333-26.714v461.082zM554.667 207.953c44.962 17.22 95.91 26.714 149.333 26.714 53.449 0 104.384-9.489 149.333-26.709v461.079c-40.085 21.454-91.797 34.964-149.333 34.964-57.502 0-109.239-13.511-149.333-34.965v-461.082z" />
<glyph unicode="&#xe919;" glyph-name="briefcase" d="M336.158 879.843c24.005 24.005 56.562 37.49 90.509 37.49h170.667c33.95 0 66.505-13.486 90.509-37.49s37.491-56.562 37.491-90.51v-42.667h85.333c33.95 0 66.505-13.486 90.509-37.49 24.009-24.005 37.491-56.562 37.491-90.51v-223.219c0.017-0.653 0.017-1.31 0-1.958v-201.489c0-33.95-13.483-66.505-37.491-90.509-24.004-24.004-56.559-37.491-90.509-37.491h-597.332c-33.948 0-66.505 13.487-90.51 37.491s-37.49 56.559-37.49 90.509v201.489c-0.015 0.653-0.015 1.306 0 1.958v223.219c0 33.948 13.486 66.505 37.49 90.51s56.562 37.49 90.51 37.49h85.333v42.667c0 33.948 13.486 66.505 37.49 90.51zM384.001 746.667h255.999v42.667c0 11.316-4.493 22.168-12.497 30.17-8 8.001-18.854 12.497-30.17 12.497h-170.667c-11.315 0-22.167-4.495-30.169-12.497s-12.497-18.854-12.497-30.17v-42.667zM213.334 661.333c-11.316 0-22.168-4.495-30.17-12.497s-12.497-18.854-12.497-30.17v-194.999c106.281-39.428 221.225-61.001 341.332-61.001h0.051c116.561-0.141 232.132 20.544 341.282 61.009v194.991c0 11.316-4.493 22.168-12.497 30.17-8 8.001-18.854 12.497-30.17 12.497h-597.332zM853.333 333.163c-109.845-37.065-225.148-55.97-341.359-55.829-119.322 0.004-234.096 19.627-341.307 55.817v-141.15c0-11.315 4.495-22.17 12.497-30.17s18.854-12.497 30.17-12.497h597.332c11.315 0 22.17 4.497 30.17 12.497 8.004 8 12.497 18.854 12.497 30.17v141.163zM469.333 448c0 23.565 19.102 42.667 42.667 42.667h0.427c23.565 0 42.667-19.102 42.667-42.667s-19.102-42.667-42.667-42.667h-0.427c-23.565 0-42.667 19.102-42.667 42.667z" />
<glyph unicode="&#xe91a;" glyph-name="cake" d="M341.333 832c0 23.564 19.103 42.667 42.667 42.667h0.427c23.564 0 42.667-19.103 42.667-42.667s-19.103-42.667-42.667-42.667h-0.427c-23.564 0-42.667 19.103-42.667 42.667zM469.333 832c0 23.564 19.102 42.667 42.667 42.667h0.427c23.565 0 42.667-19.103 42.667-42.667s-19.102-42.667-42.667-42.667h-0.427c-23.565 0-42.667 19.103-42.667 42.667zM597.333 832c0 23.564 19.102 42.667 42.667 42.667h0.427c23.565 0 42.667-19.103 42.667-42.667s-19.102-42.667-42.667-42.667h-0.427c-23.565 0-42.667 19.103-42.667 42.667zM384 746.667c23.564 0 42.667-19.103 42.667-42.667v-42.667h42.667v42.667c0 23.564 19.102 42.667 42.667 42.667s42.667-19.103 42.667-42.667v-42.667h42.667v42.667c0 23.564 19.102 42.667 42.667 42.667s42.667-19.103 42.667-42.667v-42.667c33.95 0 66.505-13.486 90.509-37.49s37.491-56.562 37.491-90.51v-42.667c33.95 0 66.505-13.487 90.509-37.491s37.491-56.559 37.491-90.509v-298.667c0-23.565-19.102-42.667-42.667-42.667h-768c-23.564 0-42.667 19.102-42.667 42.667v298.667c0 33.946 13.486 66.505 37.49 90.509s56.562 37.491 90.51 37.491v42.667c0 33.948 13.486 66.505 37.49 90.51s56.562 37.49 90.51 37.49v42.667c0 23.564 19.103 42.667 42.667 42.667zM341.333 576c-11.316 0-22.168-4.495-30.17-12.497s-12.497-18.854-12.497-30.17v-42.667h426.667v42.667c0 11.316-4.497 22.168-12.497 30.17s-18.854 12.497-30.17 12.497h-341.333zM213.333 405.333c-11.316 0-22.168-4.497-30.17-12.497s-12.497-18.854-12.497-30.17v-29.154c15.91-4.459 31.107-11.413 45.002-20.681 11.944-7.962 25.977-12.211 40.332-12.211s28.388 4.25 40.332 12.211c25.961 17.31 56.466 26.547 87.668 26.547s61.709-9.237 87.667-26.547c11.947-7.962 25.98-12.211 40.333-12.211s28.386 4.25 40.333 12.211c25.958 17.31 56.465 26.547 87.667 26.547s61.709-9.237 87.667-26.547c11.947-7.962 25.98-12.211 40.333-12.211s28.386 4.25 40.333 12.211c14.071 9.391 29.274 16.282 45.001 20.685v29.15c0 11.315-4.497 22.17-12.497 30.17s-18.854 12.497-30.17 12.497h-597.333zM853.333 240.307c-25.446-16.324-55.061-25.020-85.333-25.020-31.202 0-61.709 9.237-87.667 26.547-11.947 7.962-25.98 12.211-40.333 12.211s-28.386-4.25-40.333-12.211c-25.958-17.31-56.465-26.547-87.667-26.547s-61.709 9.237-87.668 26.547c-11.944 7.962-25.977 12.211-40.332 12.211s-28.388-4.25-40.332-12.211c-25.961-17.31-56.466-26.547-87.668-26.547-30.272 0-59.887 8.695-85.333 25.020v-133.641h682.667v133.641z" />
<glyph unicode="&#xe91b;" glyph-name="calculator" d="M208.157 837.176c24.005 24.005 56.562 37.49 90.51 37.49h426.667c33.946 0 66.505-13.486 90.509-37.49s37.491-56.562 37.491-90.51v-597.333c0-33.95-13.487-66.505-37.491-90.509s-56.559-37.491-90.509-37.491h-426.667c-33.948 0-66.505 13.487-90.51 37.491s-37.49 56.559-37.49 90.509v597.333c0 33.948 13.486 66.505 37.49 90.51zM298.667 789.333c-11.316 0-22.168-4.495-30.17-12.497s-12.497-18.854-12.497-30.17v-597.333c0-11.315 4.495-22.17 12.497-30.17s18.854-12.497 30.17-12.497h426.667c11.315 0 22.17 4.497 30.17 12.497s12.497 18.854 12.497 30.17v597.333c0 11.316-4.497 22.168-12.497 30.17s-18.854 12.497-30.17 12.497h-426.667zM341.333 661.333c0 23.564 19.103 42.667 42.667 42.667h256c23.565 0 42.667-19.103 42.667-42.667s-19.102-42.667-42.667-42.667h-256c-23.564 0-42.667 19.103-42.667 42.667zM341.333 490.667c0 23.565 19.103 42.667 42.667 42.667h0.427c23.564 0 42.667-19.102 42.667-42.667s-19.103-42.667-42.667-42.667h-0.427c-23.564 0-42.667 19.102-42.667 42.667zM469.333 490.667c0 23.565 19.102 42.667 42.667 42.667h0.427c23.565 0 42.667-19.102 42.667-42.667s-19.102-42.667-42.667-42.667h-0.427c-23.565 0-42.667 19.102-42.667 42.667zM597.333 490.667c0 23.565 19.102 42.667 42.667 42.667h0.427c23.565 0 42.667-19.102 42.667-42.667s-19.102-42.667-42.667-42.667h-0.427c-23.565 0-42.667 19.102-42.667 42.667zM341.333 362.667c0 23.565 19.103 42.667 42.667 42.667h0.427c23.564 0 42.667-19.102 42.667-42.667s-19.103-42.667-42.667-42.667h-0.427c-23.564 0-42.667 19.102-42.667 42.667zM469.333 362.667c0 23.565 19.102 42.667 42.667 42.667h0.427c23.565 0 42.667-19.102 42.667-42.667s-19.102-42.667-42.667-42.667h-0.427c-23.565 0-42.667 19.102-42.667 42.667zM640 405.333c23.565 0 42.667-19.102 42.667-42.667v-128c0-23.565-19.102-42.667-42.667-42.667s-42.667 19.102-42.667 42.667v128c0 23.565 19.102 42.667 42.667 42.667zM341.333 234.667c0 23.565 19.103 42.667 42.667 42.667h0.427c23.564 0 42.667-19.102 42.667-42.667s-19.103-42.667-42.667-42.667h-0.427c-23.564 0-42.667 19.102-42.667 42.667zM469.333 234.667c0 23.565 19.102 42.667 42.667 42.667h0.427c23.565 0 42.667-19.102 42.667-42.667s-19.102-42.667-42.667-42.667h-0.427c-23.565 0-42.667 19.102-42.667 42.667z" />
<glyph unicode="&#xe91c;" glyph-name="calendar" d="M341.333 874.667c23.564 0 42.667-19.103 42.667-42.667v-42.667h256v42.667c0 23.564 19.102 42.667 42.667 42.667s42.667-19.103 42.667-42.667v-42.667h85.333c33.95 0 66.505-13.486 90.509-37.49s37.491-56.562 37.491-90.51v-512c0-33.95-13.487-66.505-37.491-90.509s-56.559-37.491-90.509-37.491h-597.333c-33.948 0-66.505 13.487-90.51 37.491s-37.49 56.559-37.49 90.509v512c0 33.948 13.486 66.505 37.49 90.51s56.562 37.49 90.51 37.49h85.333v42.667c0 23.564 19.103 42.667 42.667 42.667zM298.667 704h-85.333c-11.316 0-22.168-4.495-30.17-12.497s-12.497-18.854-12.497-30.17v-512c0-11.315 4.495-22.17 12.497-30.17s18.854-12.497 30.17-12.497h597.333c11.315 0 22.17 4.497 30.17 12.497s12.497 18.854 12.497 30.17v512c0 11.316-4.497 22.168-12.497 30.17s-18.854 12.497-30.17 12.497h-85.333v-42.667c0-23.564-19.102-42.667-42.667-42.667s-42.667 19.103-42.667 42.667v42.667h-256v-42.667c0-23.564-19.103-42.667-42.667-42.667s-42.667 19.103-42.667 42.667v42.667zM256 490.667c0 23.565 19.103 42.667 42.667 42.667h426.667c23.565 0 42.667-19.102 42.667-42.667s-19.102-42.667-42.667-42.667h-426.667c-23.564 0-42.667 19.102-42.667 42.667z" />
<glyph unicode="&#xe91d;" glyph-name="camera" d="M429.645 746.667h164.71c7.019 0.001 13.935-1.731 20.126-5.044 6.187-3.308 11.473-8.111 15.369-13.943 0.009-0.007-0.004 0.007 0 0l34.65-52.053c11.691-17.525 27.529-31.893 46.106-41.83s39.322-15.133 60.386-15.13c0.004 0 0 0 0 0h39.676c11.315 0 22.17-4.495 30.17-12.497s12.497-18.854 12.497-30.17v-384c0-11.315-4.497-22.17-12.497-30.17s-18.854-12.497-30.17-12.497h-597.333c-11.316 0-22.168 4.497-30.17 12.497s-12.497 18.854-12.497 30.17v384c0 11.316 4.495 22.168 12.497 30.17s18.854 12.497 30.17 12.497h39.68c0.002 0-0.002 0 0 0 21.066-0.002 41.806 5.195 60.382 15.13s34.415 24.304 46.108 41.83l34.653 52.066c0.003 0.004-0.003-0.004 0 0 3.897 5.836 9.173 10.621 15.361 13.931 6.192 3.312 13.107 5.044 20.127 5.044zM429.653 832c-21.066 0.002-41.806-5.195-60.382-15.13s-34.415-24.304-46.108-41.83l-34.645-52.053c0.004 0.006-0.004-0.006 0 0-3.896-5.834-9.183-10.634-15.369-13.943-6.192-3.312-13.107-5.044-20.129-5.044h-39.686c-33.948 0-66.505-13.486-90.51-37.49s-37.49-56.562-37.49-90.51v-384c0-33.946 13.486-66.505 37.49-90.509s56.562-37.491 90.51-37.491h597.333c33.95 0 66.505 13.487 90.509 37.491s37.491 56.559 37.491 90.509v384c0 33.948-13.487 66.505-37.491 90.51s-56.559 37.49-90.509 37.49h-39.68c-7.023-0.001-13.943 1.731-20.134 5.044-6.187 3.308-11.46 8.090-15.356 13.922 0.004-0.007-0.004 0.007 0 0l-34.662 52.075c-11.691 17.525-27.529 31.893-46.106 41.83s-39.317 15.133-60.382 15.13c0 0 0 0 0 0h-164.693zM512 490.667c-22.63 0-44.335-8.99-60.339-24.994s-24.994-37.709-24.994-60.339c0-22.63 8.99-44.335 24.994-60.339s37.709-24.994 60.339-24.994c22.63 0 44.335 8.99 60.339 24.994s24.994 37.709 24.994 60.339c0 22.63-8.99 44.335-24.994 60.339s-37.709 24.994-60.339 24.994zM391.32 526.012c32.006 32.007 75.415 49.988 120.68 49.988s88.674-17.981 120.678-49.988c32.009-32.004 49.988-75.413 49.988-120.678s-17.98-88.674-49.988-120.678c-32.004-32.009-75.413-49.988-120.678-49.988s-88.673 17.98-120.68 49.988c-32.006 32.004-49.987 75.413-49.987 120.678s17.981 88.674 49.987 120.678z" />
<glyph unicode="&#xe91e;" glyph-name="chat-alt" d="M213.333 746.667c-11.316 0-22.168-4.495-30.17-12.497s-12.497-18.854-12.497-30.17v-341.333c0-11.315 4.495-22.17 12.497-30.17s18.854-12.497 30.17-12.497h170.667c23.564 0 42.667-19.102 42.667-42.667v-110.327l140.497 140.497c8 8 18.854 12.497 30.17 12.497h213.333c11.315 0 22.17 4.497 30.17 12.497s12.497 18.854 12.497 30.17v341.333c0 11.316-4.497 22.168-12.497 30.17s-18.854 12.497-30.17 12.497h-597.333zM122.824 794.51c24.005 24.005 56.562 37.49 90.51 37.49h597.333c33.95 0 66.505-13.486 90.509-37.49s37.491-56.562 37.491-90.51v-341.333c0-33.95-13.487-66.505-37.491-90.509s-56.559-37.491-90.509-37.491h-195.661l-200.836-200.836c-12.203-12.203-30.554-15.855-46.498-9.25s-26.339 22.161-26.339 39.42v170.667h-128c-33.948 0-66.505 13.487-90.51 37.491s-37.49 56.563-37.49 90.509v341.333c0 33.948 13.486 66.505 37.49 90.51zM298.667 533.333c0 23.564 19.103 42.667 42.667 42.667h0.427c23.564 0 42.667-19.103 42.667-42.667s-19.103-42.667-42.667-42.667h-0.427c-23.564 0-42.667 19.102-42.667 42.667zM469.333 533.333c0 23.564 19.102 42.667 42.667 42.667h0.427c23.565 0 42.667-19.103 42.667-42.667s-19.102-42.667-42.667-42.667h-0.427c-23.565 0-42.667 19.102-42.667 42.667zM640 533.333c0 23.564 19.102 42.667 42.667 42.667h0.427c23.565 0 42.667-19.103 42.667-42.667s-19.102-42.667-42.667-42.667h-0.427c-23.565 0-42.667 19.102-42.667 42.667z" />
<glyph unicode="&#xe91f;" glyph-name="check" d="M840.836 691.503c16.661-16.663 16.661-43.677 0-60.34l-426.666-426.666c-16.663-16.661-43.677-16.661-60.34 0l-170.667 170.667c-16.662 16.661-16.662 43.678 0 60.339s43.677 16.661 60.34 0l140.497-140.497 396.497 396.497c16.661 16.662 43.678 16.662 60.339 0z" />
<glyph unicode="&#xe920;" glyph-name="check-circle" d="M512 789.333c-90.527 0-177.347-35.962-241.359-99.974s-99.974-150.832-99.974-241.359c0-44.826 8.829-89.212 25.982-130.624s42.296-79.040 73.992-110.737c31.695-31.693 69.324-56.836 110.736-73.988 41.413-17.156 85.797-25.984 130.623-25.984s89.212 8.828 130.624 25.984c41.412 17.152 79.040 42.295 110.737 73.988 31.693 31.697 56.836 69.325 73.988 110.737 17.156 41.412 25.984 85.798 25.984 130.624 0 90.527-35.964 177.347-99.972 241.359-64.013 64.013-150.835 99.974-241.361 99.974zM210.301 749.699c80.016 80.015 188.54 124.968 301.699 124.968 113.161 0 221.683-44.952 301.7-124.968 80.013-80.016 124.966-188.54 124.966-301.699 0-56.030-11.038-111.514-32.478-163.277-21.444-51.767-52.868-98.803-92.489-138.423s-86.656-71.044-138.423-92.489c-51.763-21.44-107.247-32.478-163.277-32.478s-111.513 11.038-163.278 32.478c-51.766 21.444-98.801 52.868-138.421 92.489s-71.048 86.656-92.49 138.423c-21.442 51.763-32.478 107.247-32.478 163.277 0 113.159 44.952 221.683 124.968 301.699zM670.17 563.503c16.661-16.663 16.661-43.678 0-60.34l-170.667-170.667c-16.661-16.661-43.678-16.661-60.339 0l-85.334 85.333c-16.662 16.661-16.662 43.678 0 60.339s43.677 16.661 60.34 0l55.163-55.164 140.497 140.497c16.661 16.662 43.678 16.662 60.339 0z" />
<glyph unicode="&#xe921;" glyph-name="chevron-down" d="M183.163 606.17c16.663 16.662 43.677 16.662 60.34 0l268.497-268.497 268.497 268.497c16.661 16.662 43.678 16.662 60.339 0s16.661-43.677 0-60.34l-298.667-298.666c-16.661-16.661-43.678-16.661-60.339 0l-298.667 298.666c-16.662 16.663-16.662 43.677 0 60.34z" />
<glyph unicode="&#xe922;" glyph-name="chevron-left" d="M670.17 776.837c16.661-16.663 16.661-43.677 0-60.34l-268.497-268.497 268.497-268.497c16.661-16.661 16.661-43.678 0-60.339s-43.678-16.661-60.339 0l-298.667 298.667c-16.662 16.661-16.662 43.678 0 60.339l298.667 298.667c16.661 16.662 43.678 16.662 60.339 0z" />
<glyph unicode="&#xe923;" glyph-name="chevron-right" d="M353.83 776.837c16.663 16.662 43.677 16.662 60.34 0l298.666-298.667c16.661-16.661 16.661-43.678 0-60.339l-298.666-298.667c-16.663-16.661-43.677-16.661-60.34 0s-16.662 43.678 0 60.339l268.497 268.497-268.497 268.497c-16.662 16.663-16.662 43.677 0 60.34z" />
<glyph unicode="&#xe924;" glyph-name="chevron-up" d="M481.83 648.837c16.661 16.662 43.678 16.662 60.339 0l298.667-298.667c16.661-16.661 16.661-43.678 0-60.339s-43.678-16.661-60.339 0l-268.497 268.497-268.497-268.497c-16.663-16.661-43.677-16.661-60.34 0s-16.662 43.678 0 60.339l298.667 298.667z" />
<glyph unicode="&#xe925;" glyph-name="clipboard-check" d="M469.333 789.333c-11.315 0-22.17-4.495-30.17-12.497s-12.497-18.854-12.497-30.17c0-11.316 4.497-22.168 12.497-30.17s18.854-12.497 30.17-12.497h85.333c11.315 0 22.17 4.495 30.17 12.497s12.497 18.854 12.497 30.17c0 11.316-4.497 22.168-12.497 30.17s-18.854 12.497-30.17 12.497h-85.333zM378.824 837.176c24.005 24.005 56.564 37.49 90.51 37.49h85.333c33.946 0 66.505-13.486 90.509-37.49 13.628-13.628 23.868-30.013 30.17-47.843h49.988c33.946 0 66.505-13.486 90.509-37.49s37.491-56.562 37.491-90.51v-512c0-33.95-13.487-66.505-37.491-90.509s-56.559-37.491-90.509-37.491h-426.667c-33.948 0-66.505 13.487-90.51 37.491s-37.49 56.559-37.49 90.509v512c0 33.948 13.486 66.505 37.49 90.51s56.562 37.49 90.51 37.49h49.987c6.304 17.83 16.542 34.215 30.17 47.843zM348.654 704h-49.987c-11.316 0-22.168-4.495-30.17-12.497s-12.497-18.854-12.497-30.17v-512c0-11.315 4.495-22.17 12.497-30.17s18.854-12.497 30.17-12.497h426.667c11.315 0 22.17 4.497 30.17 12.497s12.497 18.854 12.497 30.17v512c0 11.316-4.497 22.168-12.497 30.17s-18.854 12.497-30.17 12.497h-49.988c-6.302-17.83-16.542-34.215-30.17-47.843-24.004-24.005-56.563-37.49-90.509-37.49h-85.333c-33.946 0-66.505 13.486-90.51 37.49-13.628 13.628-23.866 30.013-30.17 47.843zM670.17 478.17c16.661-16.661 16.661-43.678 0-60.339l-170.667-170.667c-16.661-16.661-43.678-16.661-60.339 0l-85.334 85.333c-16.662 16.661-16.662 43.678 0 60.339s43.677 16.661 60.34 0l55.163-55.164 140.497 140.497c16.661 16.661 43.678 16.661 60.339 0z" />
<glyph unicode="&#xe926;" glyph-name="clock" d="M512 789.333c-90.527 0-177.347-35.962-241.359-99.974s-99.974-150.832-99.974-241.359c0-44.826 8.829-89.212 25.982-130.624s42.296-79.040 73.992-110.737c31.695-31.693 69.324-56.836 110.736-73.988 41.413-17.156 85.797-25.984 130.623-25.984s89.212 8.828 130.624 25.984c41.412 17.152 79.040 42.295 110.737 73.988 31.693 31.697 56.836 69.325 73.988 110.737 17.156 41.412 25.984 85.798 25.984 130.624 0 90.527-35.964 177.347-99.972 241.359-64.013 64.013-150.835 99.974-241.361 99.974zM210.301 749.699c80.016 80.015 188.54 124.968 301.699 124.968 113.161 0 221.683-44.952 301.7-124.968 80.013-80.016 124.966-188.54 124.966-301.699 0-56.030-11.038-111.514-32.478-163.277-21.444-51.767-52.868-98.803-92.489-138.423s-86.656-71.044-138.423-92.489c-51.763-21.44-107.247-32.478-163.277-32.478s-111.513 11.038-163.278 32.478c-51.766 21.444-98.801 52.868-138.421 92.489s-71.048 86.656-92.49 138.423c-21.442 51.763-32.478 107.247-32.478 163.277 0 113.159 44.952 221.683 124.968 301.699zM512 661.333c23.565 0 42.667-19.103 42.667-42.667v-152.994l115.503-115.503c16.661-16.661 16.661-43.678 0-60.339s-43.678-16.661-60.339 0l-128 128c-8 8-12.497 18.854-12.497 30.17v170.667c0 23.564 19.102 42.667 42.667 42.667z" />
<glyph unicode="&#xe927;" glyph-name="cog" d="M851.631 560.64c-4.911 1.14-9.455 3.486-13.227 6.827-4.203 2.756-7.595 6.586-9.813 11.093-1.916 4.588-2.79 9.542-2.56 14.507 0.457 4.727 2.069 9.268 4.693 13.227 13.82 22.225 19.721 48.468 16.747 74.47s-14.647 50.235-33.131 68.766c-18.479 18.531-42.684 30.271-68.676 33.314s-52.254-2.789-74.513-16.55c-4.301-2.566-9.105-4.167-14.080-4.693-4.838-0.435-9.707 0.45-14.080 2.56-4.578 1.689-8.572 4.65-11.52 8.533-3.426 3.547-5.79 7.98-6.827 12.8-6.084 25.354-20.523 47.921-40.998 64.065-20.471 16.144-45.786 24.923-71.855 24.923-26.074 0-51.388-8.78-71.859-24.923-20.475-16.144-34.916-38.711-40.996-64.065-1.137-4.76-3.396-9.18-6.587-12.891s-7.223-6.605-11.759-8.442c-4.288-2.208-9.043-3.36-13.867-3.36s-9.578 1.152-13.867 3.36c-22.063 12.711-47.682 17.842-72.938 14.609s-48.756-14.653-66.906-32.512c-18.149-17.859-29.946-41.172-33.587-66.373s1.077-50.9 13.431-73.164c2.69-4.083 4.305-8.78 4.693-13.653 0.47-4.978-0.414-9.99-2.56-14.507-1.682-4.465-4.472-8.429-8.107-11.52-3.67-3.251-8.055-5.59-12.8-6.827-25.353-6.080-47.921-20.521-64.065-40.994-16.144-20.471-24.924-45.786-24.924-71.859s8.78-51.388 24.924-71.859c16.144-20.471 38.711-34.914 64.065-40.994 4.745-1.237 9.13-3.575 12.8-6.827 3.635-3.093 6.424-7.057 8.107-11.52 2.11-4.378 2.995-9.242 2.56-14.080-0.518-4.847-2.123-9.515-4.693-13.653-13.522-22.293-19.174-48.478-16.050-74.364s14.841-49.971 33.277-68.407c18.436-18.436 42.525-30.157 68.41-33.28s52.070 2.53 74.362 16.051c4.114 2.628 8.794 4.237 13.653 4.693 4.795 0.371 9.611-0.358 14.080-2.133 4.445-2.133 8.488-5.022 11.947-8.533 2.962-3.797 5.138-8.149 6.4-12.8 6.080-25.353 20.521-47.923 40.996-64.064 20.471-16.145 45.786-24.926 71.859-24.926 26.069 0 51.383 8.781 71.855 24.926 20.476 16.141 34.914 38.711 40.998 64.064 1.233 4.745 3.575 9.131 6.827 12.8 3.183 3.639 7.113 6.549 11.52 8.533 4.48 1.86 9.348 2.598 14.182 2.15 4.83-0.444 9.481-2.061 13.551-4.71 22.289-13.521 48.474-19.174 74.359-16.051s49.975 14.844 68.412 33.28c18.436 18.436 30.153 42.522 33.276 68.407s-2.526 52.070-16.047 74.364c-2.573 4.139-4.177 8.806-4.693 13.653-0.435 4.838 0.448 9.702 2.56 14.080 1.779 4.535 4.548 8.614 8.107 11.947 3.797 2.961 8.149 5.137 12.8 6.4 25.353 6.080 47.919 20.523 64.064 40.994s24.922 45.786 24.922 71.859c0 26.074-8.777 51.388-24.922 71.859-16.145 20.473-38.711 34.914-64.064 40.994l2.133 0.427zM831.151 417.707c-17.677-4.433-34.146-12.74-48.213-24.32-13.594-11.674-24.384-26.257-31.573-42.667-7.266-16.785-10.202-35.123-8.533-53.333 1.357-18.287 7.061-35.989 16.64-51.627 3.87-5.85 5.521-12.89 4.663-19.853-0.862-6.963-4.181-13.389-9.357-18.121-4.826-5.030-11.238-8.247-18.155-9.101s-13.918 0.7-19.819 4.407c-15.428 9.698-33.020 15.415-51.2 16.64-18.206 1.455-36.493-1.472-53.333-8.533-16.474-7.087-31.078-17.894-42.667-31.573-12.036-13.828-20.531-30.374-24.747-48.213-1.779-6.618-5.692-12.467-11.127-16.636-5.44-4.169-12.1-6.43-18.953-6.43-6.857 0-13.517 2.261-18.953 6.43-5.44 4.169-9.353 10.018-11.127 16.636-4.22 17.839-12.715 34.385-24.747 48.213-10.935 12.715-24.491 22.921-39.733 29.918-15.243 6.993-31.817 10.615-48.589 10.615h-11.947c-18.181-1.225-35.773-6.942-51.2-16.64-5.903-3.708-12.904-5.261-19.821-4.407s-13.328 4.070-18.152 9.101c-5.178 4.732-8.496 11.157-9.356 18.121s0.793 14.003 4.663 19.853c9.517 15.595 15.217 33.22 16.637 51.435s-1.481 36.506-8.467 53.389c-6.986 16.883-17.859 31.876-31.734 43.763s-30.361 20.331-48.116 24.64c-6.867 1.088-13.14 4.54-17.735 9.758s-7.226 11.878-7.438 18.829c-0.244 6.946 1.978 13.756 6.273 19.226 4.295 5.466 10.386 9.233 17.194 10.641 17.84 4.22 34.386 12.71 48.213 24.747 13.725 11.55 24.541 26.163 31.573 42.667 7.414 16.878 10.7 35.279 9.588 53.68s-6.593 36.272-15.988 52.133c-3.87 5.851-5.524 12.891-4.663 19.853s4.178 13.388 9.356 18.12c4.683 5.256 11.117 8.63 18.103 9.493s14.048-0.843 19.87-4.8c15.596-9.517 33.219-15.217 51.434-16.637s36.508 1.482 53.391 8.467c16.88 6.986 31.878 17.859 43.764 31.734 11.883 13.875 20.326 30.361 24.64 48.115 1.434 6.917 5.205 13.129 10.688 17.588 5.478 4.459 12.326 6.894 19.392 6.894 7.061 0 13.909-2.435 19.392-6.894 5.478-4.46 9.25-10.671 10.688-17.588 4.403-17.771 12.873-34.276 24.747-48.213 11.546-13.725 26.163-24.541 42.667-31.573 17.045-6.856 35.426-9.773 53.76-8.533 18.138 1.425 35.686 7.127 51.2 16.64 5.948 3.52 12.898 4.962 19.759 4.096s13.235-3.989 18.125-8.878c4.89-4.889 8.013-11.265 8.879-18.124 0.862-6.859-0.576-13.811-4.096-19.761-9.515-15.513-15.215-33.059-16.64-51.2-1.28-18.197 1.638-36.444 8.533-53.333 7.087-16.469 17.89-31.074 31.573-42.667 13.935-11.87 30.438-20.343 48.213-24.747 6.886-1.318 13.077-5.047 17.455-10.526 4.382-5.474 6.665-12.331 6.438-19.341 0.593-7.151-1.408-14.281-5.641-20.079s-10.406-9.877-17.399-11.494h1.707zM510.293 618.667c-45.265 0-88.675-17.981-120.681-49.987s-49.987-75.415-49.987-120.68c0.058-33.685 10.083-66.603 28.813-94.601 18.73-28.002 45.328-49.83 76.443-62.741 31.113-12.911 65.353-16.329 98.402-9.813 33.054 6.511 63.437 22.66 87.33 46.409v0c23.868 23.842 40.137 54.225 46.746 87.309s3.264 67.388-9.609 98.569c-12.877 31.186-34.705 57.855-62.733 76.639-28.023 18.784-60.988 28.84-94.724 28.897v0zM570.453 387.413c-16.32-15.424-37.922-24.017-60.373-24.017-22.455 0-44.058 8.593-60.373 24.017-7.936 7.923-14.229 17.335-18.526 27.695-4.292 10.359-6.503 21.466-6.503 32.678s2.211 22.319 6.503 32.678c4.297 10.359 10.59 19.772 18.526 27.695 7.923 7.936 17.335 14.229 27.695 18.522 10.359 4.297 21.461 6.507 32.678 6.507 11.213 0 22.315-2.21 32.674-6.507 10.359-4.292 19.772-10.586 27.699-18.522 7.932-7.923 14.225-17.335 18.522-27.695 4.292-10.359 6.502-21.466 6.502-32.678s-2.21-22.319-6.502-32.678c-4.297-10.359-10.59-19.772-18.522-27.695v0z" />
<glyph unicode="&#xe928;" glyph-name="credit-card" d="M135.32 739.346c32.006 32.006 75.416 49.987 120.68 49.987h512c45.265 0 88.674-17.981 120.678-49.987 32.009-32.006 49.988-75.416 49.988-120.68v-341.333c0-45.265-17.98-88.674-49.988-120.678-32.004-32.009-75.413-49.988-120.678-49.988h-512c-45.264 0-88.673 17.98-120.68 49.988-32.006 32.004-49.987 75.413-49.987 120.678v341.333c0 45.264 17.981 88.673 49.987 120.68zM170.667 490.667v-213.333c0-22.63 8.99-44.335 24.994-60.339s37.708-24.994 60.34-24.994h512c22.63 0 44.335 8.99 60.339 24.994s24.994 37.709 24.994 60.339v213.333h-682.667zM853.333 576v42.667c0 22.632-8.99 44.337-24.994 60.34s-37.709 24.994-60.339 24.994h-512c-22.632 0-44.337-8.99-60.34-24.994s-24.994-37.708-24.994-60.34v-42.667h682.667zM256 320c0-23.565 19.103-42.667 42.667-42.667h42.667c23.564 0 42.667 19.102 42.667 42.667s-19.103 42.667-42.667 42.667h-42.667c-23.564 0-42.667-19.102-42.667-42.667zM469.333 320c0-23.565 19.102-42.667 42.667-42.667h42.667c23.565 0 42.667 19.102 42.667 42.667s-19.102 42.667-42.667 42.667h-42.667c-23.565 0-42.667-19.102-42.667-42.667z" />
<glyph unicode="&#xe929;" glyph-name="cube-transparent" d="M492.919 870.162c12.011 6.006 26.15 6.006 38.161 0l85.333-42.667c21.077-10.538 29.619-36.167 19.081-57.243s-36.164-29.62-57.242-19.081l-66.253 33.126-66.253-33.126c-21.076-10.538-46.705-1.995-57.243 19.081s-1.995 46.705 19.081 57.243l85.334 42.667zM294.162 723.081c10.538-21.076 1.995-46.705-19.081-57.243l-9.009-4.504 9.009-4.504c21.076-10.538 29.62-36.167 19.081-57.243s-36.167-29.62-57.243-19.081l-23.586 11.793v-37.631c0-23.565-19.103-42.667-42.667-42.667s-42.667 19.102-42.667 42.667v106.667c0 16.161 9.131 30.935 23.586 38.162l85.333 42.667c21.076 10.538 46.705 1.995 57.243-19.081zM729.839 723.081c10.539 21.076 36.164 29.62 57.242 19.081l85.333-42.667c14.455-7.227 23.586-22.001 23.586-38.162v-106.667c0-23.565-19.102-42.667-42.667-42.667s-42.667 19.102-42.667 42.667v37.631l-23.586-11.793c-21.077-10.538-46.703-1.995-57.242 19.081s-1.997 46.705 19.081 57.243l9.007 4.504-9.007 4.504c-21.077 10.538-29.619 36.167-19.081 57.243zM388.504 552.414c10.538 21.076 36.167 29.62 57.243 19.081l66.253-33.126 66.253 33.126c21.077 10.538 46.703 1.995 57.242-19.081 10.539-21.078 1.997-46.703-19.081-57.242l-61.747-30.874v-80.299c0-23.565-19.102-42.667-42.667-42.667s-42.667 19.102-42.667 42.667v80.299l-61.748 30.874c-21.076 10.539-29.62 36.164-19.081 57.242zM170.667 384c23.564 0 42.667-19.102 42.667-42.667v-80.299l61.748-30.874c21.076-10.539 29.62-36.164 19.081-57.242s-36.167-29.619-57.243-19.081l-85.333 42.667c-14.455 7.228-23.586 21.999-23.586 38.161v106.667c0 23.565 19.103 42.667 42.667 42.667zM853.333 384c23.565 0 42.667-19.102 42.667-42.667v-106.667c0-16.162-9.131-30.933-23.586-38.161l-85.333-42.667c-21.077-10.539-46.703-1.997-57.242 19.081s-1.997 46.703 19.081 57.242l61.747 30.874v80.299c0 23.565 19.102 42.667 42.667 42.667zM512 213.333c23.565 0 42.667-19.102 42.667-42.667v-37.632l23.586 11.793c21.077 10.539 46.703 1.997 57.242-19.081s1.997-46.703-19.081-57.242l-85.333-42.667c-12.011-6.007-26.15-6.007-38.161 0l-85.334 42.667c-21.076 10.539-29.62 36.164-19.081 57.242s36.167 29.619 57.243 19.081l23.586-11.793v37.632c0 23.565 19.102 42.667 42.667 42.667z" />
<glyph unicode="&#xe92a;" glyph-name="currency-dollar" d="M512 789.333c-90.527 0-177.347-35.962-241.359-99.974s-99.974-150.832-99.974-241.359c0-44.826 8.829-89.212 25.982-130.624s42.296-79.040 73.992-110.737c31.695-31.693 69.324-56.836 110.736-73.988 41.413-17.156 85.797-25.984 130.623-25.984s89.212 8.828 130.624 25.984c41.412 17.152 79.040 42.295 110.737 73.988 31.693 31.697 56.836 69.325 73.988 110.737 17.156 41.412 25.984 85.798 25.984 130.624 0 90.527-35.964 177.347-99.972 241.359-64.013 64.013-150.835 99.974-241.361 99.974zM210.301 749.699c80.016 80.015 188.54 124.968 301.699 124.968 113.161 0 221.683-44.952 301.7-124.968 80.013-80.016 124.966-188.54 124.966-301.699 0-56.030-11.038-111.514-32.478-163.277-21.444-51.767-52.868-98.803-92.489-138.423s-86.656-71.044-138.423-92.489c-51.763-21.44-107.247-32.478-163.277-32.478s-111.513 11.038-163.278 32.478c-51.766 21.444-98.801 52.868-138.421 92.489s-71.048 86.656-92.49 138.423c-21.442 51.763-32.478 107.247-32.478 163.277 0 113.159 44.952 221.683 124.968 301.699zM512 704c23.565 0 42.667-19.103 42.667-42.667v-3.941c40.119-7.541 76.437-25.763 100.446-53.426 15.445-17.796 13.542-44.744-4.254-60.189s-44.745-13.541-60.19 4.257c-6.942 7.995-19.315 16.119-36.002 21.535v-82.828c26.522-4.975 51.051-14.588 71.509-28.224 30.801-20.531 56.491-53.577 56.491-95.851s-25.69-75.319-56.491-95.851c-20.459-13.636-44.988-23.249-71.509-28.224v-3.925c0-23.565-19.102-42.667-42.667-42.667s-42.667 19.102-42.667 42.667v3.942c-40.119 7.539-76.439 25.762-100.447 53.423-15.445 17.796-13.539 44.745 4.257 60.19s44.744 13.542 60.188-4.254c6.942-7.996 19.315-16.119 36.002-21.538v82.829c-26.522 4.975-51.051 14.588-71.511 28.224-30.798 20.531-56.489 53.577-56.489 95.851s25.692 75.319 56.489 95.849c20.46 13.638 44.989 23.249 71.511 28.228v3.923c0 23.564 19.102 42.667 42.667 42.667zM469.333 569.561c-9.417-3.046-17.574-6.981-24.179-11.383-15.526-10.351-18.487-19.971-18.487-24.845s2.961-14.494 18.487-24.845c6.605-4.403 14.763-8.337 24.179-11.383v72.456zM554.667 398.895v-72.457c9.417 3.046 17.574 6.98 24.179 11.383 15.526 10.351 18.487 19.972 18.487 24.845s-2.961 14.494-18.487 24.845c-6.605 4.403-14.763 8.337-24.179 11.383z" />
<glyph unicode="&#xe92b;" glyph-name="database" d="M289.724 743.863c54.682 27.337 133.21 45.47 222.276 45.47s167.595-18.134 222.276-45.47c57.229-28.61 76.39-60.249 76.39-82.53s-19.162-53.92-76.39-82.53c-54.682-27.337-133.21-45.47-222.276-45.47s-167.594 18.134-222.276 45.47c-57.231 28.61-76.39 60.249-76.39 82.53s19.16 53.92 76.39 82.53zM810.667 524.757v-76.757c0-22.281-19.162-53.918-76.39-82.53-54.682-27.337-133.21-45.47-222.276-45.47s-167.594 18.133-222.276 45.47c-57.231 28.612-76.39 60.25-76.39 82.53v76.757c12.128-8.23 25.001-15.667 38.234-22.281 68.859-34.423 160.998-54.477 260.433-54.477s191.573 20.053 260.433 54.477c13.231 6.613 26.103 14.050 38.234 22.281zM896 661.333c0 72.013-57.254 125.707-123.567 158.857-68.86 34.423-160.998 54.476-260.433 54.476s-191.574-20.053-260.433-54.476c-66.311-33.15-123.567-86.844-123.567-158.857v-426.667c0-72.013 57.256-125.709 123.567-158.857 68.859-34.423 160.998-54.477 260.433-54.477s191.573 20.053 260.433 54.477c66.313 33.148 123.567 86.844 123.567 158.857v426.667zM810.667 311.424v-76.757c0-22.281-19.162-53.918-76.39-82.53-54.682-27.337-133.21-45.47-222.276-45.47s-167.594 18.133-222.276 45.47c-57.231 28.612-76.39 60.25-76.39 82.53v76.757c12.128-8.23 25.001-15.667 38.234-22.281 68.859-34.423 160.998-54.477 260.433-54.477s191.573 20.053 260.433 54.477c13.231 6.613 26.103 14.050 38.234 22.281z" />
<glyph unicode="&#xe92c;" glyph-name="document-duplicate" d="M426.667 789.333c-11.316 0-22.168-4.495-30.17-12.497s-12.497-18.854-12.497-30.17v-426.667c0-11.315 4.495-22.17 12.497-30.17s18.854-12.497 30.17-12.497h341.333c11.315 0 22.17 4.497 30.17 12.497s12.497 18.854 12.497 30.17v280.994l-188.335 188.335-195.665 0.005zM336.157 837.176c24.005 24.005 56.562 37.49 90.51 37.49h195.669c22.626-0.005 44.335-8.997 60.335-24.998zM682.671 849.669l188.326-188.326c0-0.001 0 0.002 0 0 16-15.999 24.998-37.703 25.003-60.331v-281.012c0-33.95-13.487-66.505-37.491-90.509s-56.559-37.491-90.509-37.491h-42.667v-42.667c0-33.95-13.487-66.505-37.491-90.509s-56.559-37.491-90.509-37.491h-341.333c-33.948 0-66.505 13.487-90.51 37.491s-37.49 56.559-37.49 90.509v426.667c0 33.948 13.486 66.505 37.49 90.51s56.562 37.49 90.51 37.49h42.667v42.667c0 33.948 13.486 66.505 37.49 90.51zM298.667 618.667h-42.667c-11.316 0-22.168-4.495-30.17-12.497s-12.497-18.854-12.497-30.17v-426.667c0-11.315 4.495-22.17 12.497-30.17s18.854-12.497 30.17-12.497h341.333c11.315 0 22.17 4.497 30.17 12.497s12.497 18.854 12.497 30.17v42.667h-213.333c-33.948 0-66.505 13.487-90.51 37.491s-37.49 56.559-37.49 90.509v298.667z" />
<glyph unicode="&#xe92d;" glyph-name="dots-circle-horizontal" d="M512 789.333c-90.527 0-177.347-35.962-241.359-99.974s-99.974-150.832-99.974-241.359c0-44.826 8.829-89.212 25.982-130.624s42.296-79.040 73.992-110.737c31.695-31.693 69.324-56.836 110.736-73.988 41.413-17.156 85.797-25.984 130.623-25.984s89.212 8.828 130.624 25.984c41.412 17.152 79.040 42.295 110.737 73.988 31.693 31.697 56.836 69.325 73.988 110.737 17.156 41.412 25.984 85.798 25.984 130.624 0 90.527-35.964 177.347-99.972 241.359-64.013 64.013-150.835 99.974-241.361 99.974zM210.301 749.699c80.016 80.015 188.54 124.968 301.699 124.968 113.161 0 221.683-44.952 301.7-124.968 80.013-80.016 124.966-188.54 124.966-301.699 0-56.030-11.038-111.514-32.478-163.277-21.444-51.767-52.868-98.803-92.489-138.423s-86.656-71.044-138.423-92.489c-51.763-21.44-107.247-32.478-163.277-32.478s-111.513 11.038-163.278 32.478c-51.766 21.444-98.801 52.868-138.421 92.489s-71.048 86.656-92.49 138.423c-21.442 51.763-32.478 107.247-32.478 163.277 0 113.159 44.952 221.683 124.968 301.699zM298.667 448c0 23.565 19.103 42.667 42.667 42.667h0.427c23.564 0 42.667-19.102 42.667-42.667s-19.103-42.667-42.667-42.667h-0.427c-23.564 0-42.667 19.102-42.667 42.667zM469.333 448c0 23.565 19.102 42.667 42.667 42.667h0.427c23.565 0 42.667-19.102 42.667-42.667s-19.102-42.667-42.667-42.667h-0.427c-23.565 0-42.667 19.102-42.667 42.667zM640 448c0 23.565 19.102 42.667 42.667 42.667h0.427c23.565 0 42.667-19.102 42.667-42.667s-19.102-42.667-42.667-42.667h-0.427c-23.565 0-42.667 19.102-42.667 42.667z" />
<glyph unicode="&#xe92e;" glyph-name="emoji-happy" d="M512 789.333c-90.527 0-177.347-35.962-241.359-99.974s-99.974-150.832-99.974-241.359c0-44.826 8.829-89.212 25.982-130.624s42.296-79.040 73.992-110.737c31.695-31.693 69.324-56.836 110.736-73.988 41.413-17.156 85.797-25.984 130.623-25.984s89.212 8.828 130.624 25.984c41.412 17.152 79.040 42.295 110.737 73.988 31.693 31.697 56.836 69.325 73.988 110.737 17.156 41.412 25.984 85.798 25.984 130.624 0 90.527-35.964 177.347-99.972 241.359-64.013 64.013-150.835 99.974-241.361 99.974zM210.301 749.699c80.016 80.015 188.54 124.968 301.699 124.968 113.161 0 221.683-44.952 301.7-124.968 80.013-80.016 124.966-188.54 124.966-301.699 0-56.030-11.038-111.514-32.478-163.277-21.444-51.767-52.868-98.803-92.489-138.423s-86.656-71.044-138.423-92.489c-51.763-21.44-107.247-32.478-163.277-32.478s-111.513 11.038-163.278 32.478c-51.766 21.444-98.801 52.868-138.421 92.489s-71.048 86.656-92.49 138.423c-21.442 51.763-32.478 107.247-32.478 163.277 0 113.159 44.952 221.683 124.968 301.699zM341.333 533.333c0 23.564 19.103 42.667 42.667 42.667h0.427c23.564 0 42.667-19.103 42.667-42.667s-19.103-42.667-42.667-42.667h-0.427c-23.564 0-42.667 19.102-42.667 42.667zM597.333 533.333c0 23.564 19.102 42.667 42.667 42.667h0.427c23.565 0 42.667-19.103 42.667-42.667s-19.102-42.667-42.667-42.667h-0.427c-23.565 0-42.667 19.102-42.667 42.667zM361.164 357.504c16.66 16.666 43.675 16.67 60.34 0.009 24.004-23.996 56.555-37.474 90.496-37.474s66.492 13.478 90.496 37.474c16.666 16.661 43.678 16.657 60.339-0.009s16.657-43.678-0.009-60.339c-40.004-39.996-94.259-62.46-150.827-62.46s-110.821 22.464-150.827 62.46c-16.665 16.661-16.669 43.674-0.009 60.339z" />
<glyph unicode="&#xe92f;" glyph-name="emoji-sad" d="M512 789.333c-90.527 0-177.347-35.962-241.359-99.974s-99.974-150.832-99.974-241.359c0-44.826 8.829-89.212 25.982-130.624s42.296-79.040 73.992-110.737c31.695-31.693 69.324-56.836 110.736-73.988 41.413-17.156 85.797-25.984 130.623-25.984s89.212 8.828 130.624 25.984c41.412 17.152 79.040 42.295 110.737 73.988 31.693 31.697 56.836 69.325 73.988 110.737 17.156 41.412 25.984 85.798 25.984 130.624 0 90.527-35.964 177.347-99.972 241.359-64.013 64.013-150.835 99.974-241.361 99.974zM210.301 749.699c80.016 80.015 188.54 124.968 301.699 124.968 113.161 0 221.683-44.952 301.7-124.968 80.013-80.016 124.966-188.54 124.966-301.699 0-56.030-11.038-111.514-32.478-163.277-21.444-51.767-52.868-98.803-92.489-138.423s-86.656-71.044-138.423-92.489c-51.763-21.44-107.247-32.478-163.277-32.478s-111.513 11.038-163.278 32.478c-51.766 21.444-98.801 52.868-138.421 92.489s-71.048 86.656-92.49 138.423c-21.442 51.763-32.478 107.247-32.478 163.277 0 113.159 44.952 221.683 124.968 301.699zM341.333 533.333c0 23.564 19.103 42.667 42.667 42.667h0.427c23.564 0 42.667-19.103 42.667-42.667s-19.103-42.667-42.667-42.667h-0.427c-23.564 0-42.667 19.102-42.667 42.667zM597.333 533.333c0 23.564 19.102 42.667 42.667 42.667h0.427c23.565 0 42.667-19.103 42.667-42.667s-19.102-42.667-42.667-42.667h-0.427c-23.565 0-42.667 19.102-42.667 42.667zM512 277.295c-33.941 0-66.492-13.478-90.496-37.474-16.665-16.661-43.68-16.657-60.34 0.009s-16.656 43.678 0.009 60.339c40.006 39.996 94.259 62.46 150.827 62.46s110.822-22.464 150.827-62.46c16.666-16.661 16.67-43.674 0.009-60.339s-43.674-16.67-60.339-0.009c-24.004 23.996-56.555 37.474-90.496 37.474z" />
<glyph unicode="&#xe930;" glyph-name="exclamation" d="M401.154 810.675c49.278 85.308 172.41 85.308 221.69 0l295.595-512c49.284-85.321-12.292-192.009-110.844-192.009h-591.191c-98.549 0-160.126 106.679-110.849 192 0.002 0.004-0.002-0.004 0 0l295.599 512.008zM475.046 767.992l-295.591-511.992c-16.421-28.429 4.087-64 36.948-64h591.191c32.858 0 53.372 35.563 36.949 63.991l-295.595 512c-16.427 28.441-57.476 28.441-73.903 0zM512 618.667c23.561 0 42.667-19.103 42.667-42.667v-85.333c0-23.565-19.106-42.667-42.667-42.667-23.565 0-42.667 19.102-42.667 42.667v85.333c0 23.564 19.102 42.667 42.667 42.667zM469.333 320c0 23.565 19.102 42.667 42.667 42.667h0.427c23.561 0 42.667-19.102 42.667-42.667s-19.106-42.667-42.667-42.667h-0.427c-23.565 0-42.667 19.102-42.667 42.667z" />
<glyph unicode="&#xe931;" glyph-name="external-link" d="M597.333 746.667c-23.565 0-42.667 19.103-42.667 42.667s19.102 42.667 42.667 42.667h256c23.565 0 42.667-19.103 42.667-42.667v-256c0-23.565-19.102-42.667-42.667-42.667s-42.667 19.102-42.667 42.667v152.994l-353.83-353.83c-16.661-16.661-43.677-16.661-60.34 0s-16.662 43.678 0 60.339l353.831 353.83h-152.994zM165.49 709.176c24.005 24.005 56.562 37.49 90.51 37.49h170.667c23.565 0 42.667-19.103 42.667-42.667s-19.102-42.667-42.667-42.667h-170.667c-11.316 0-22.168-4.495-30.17-12.497s-12.497-18.854-12.497-30.17v-426.667c0-11.315 4.495-22.17 12.497-30.17s18.854-12.497 30.17-12.497h426.667c11.315 0 22.17 4.497 30.17 12.497s12.497 18.854 12.497 30.17v170.667c0 23.565 19.102 42.667 42.667 42.667s42.667-19.102 42.667-42.667v-170.667c0-33.95-13.487-66.505-37.491-90.509s-56.559-37.491-90.509-37.491h-426.667c-33.948 0-66.505 13.487-90.51 37.491s-37.49 56.563-37.49 90.509v426.667c0 33.948 13.486 66.505 37.49 90.51z" />
<glyph unicode="&#xe932;" glyph-name="finger-print" d="M583.258 28.587c-7.275 0.021-14.421 1.903-20.762 5.466-6.345 3.558-11.669 8.683-15.475 14.882-3.802 6.199-5.961 13.265-6.263 20.531-0.307 7.27 1.254 14.494 4.527 20.988 25.178 50.129 45.466 102.566 60.587 156.587 1.54 5.406 4.13 10.458 7.625 14.865 3.49 4.403 7.817 8.077 12.732 10.812 4.911 2.735 10.313 4.476 15.898 5.12s11.243 0.183 16.653-1.357c5.406-1.54 10.458-4.13 14.861-7.625 4.407-3.494 8.081-7.821 10.816-12.732 2.731-4.911 4.471-10.317 5.116-15.902 0.649-5.585 0.188-11.243-1.353-16.649-16.909-58.812-39.189-115.938-66.56-170.667-3.46-7.262-8.9-13.397-15.693-17.698-6.797-4.305-14.669-6.601-22.707-6.622zM394.243 40.533c-7.988-0.026-15.823 2.193-22.613 6.4-4.735 2.995-8.833 6.899-12.061 11.477-3.228 4.582-5.521 9.754-6.749 15.223-1.228 5.466-1.367 11.123-0.41 16.644s2.994 10.799 5.993 15.535c72.211 115.085 110.649 248.137 110.935 384 0 11.315 4.493 22.17 12.497 30.17 8 8 18.85 12.497 30.17 12.497 11.315 0 22.165-4.497 30.17-12.497 8-8 12.497-18.854 12.497-30.17 0.038-152.606-42.999-302.127-124.16-431.36-4.092-5.756-9.547-10.402-15.876-13.53s-13.336-4.638-20.392-4.39v0zM247.469 125.867c-7.72-0.038-15.305 2.022-21.947 5.952-6.642 3.934-12.093 9.596-15.771 16.384s-5.446 14.447-5.115 22.161c0.331 7.71 2.748 15.189 6.994 21.636v3.413c55.687 88.414 85.268 190.763 85.333 295.253 0 56.579 22.476 110.842 62.484 150.849s94.271 62.484 150.851 62.484c56.576 0 110.839-22.476 150.848-62.484s62.485-94.27 62.485-150.849c-0.154-44.817-3.29-89.574-9.387-133.973-1.527-11.315-7.488-21.559-16.572-28.484-9.079-6.921-20.54-9.95-31.855-8.422-11.319 1.527-21.564 7.488-28.484 16.572-6.921 9.079-9.95 20.54-8.422 31.855 5.598 40.58 8.452 81.489 8.533 122.453-0.030 33.937-13.538 66.472-37.547 90.453-24.418 23.168-56.794 36.084-90.453 36.084s-66.039-12.916-90.455-36.084c-23.491-23.91-36.666-56.081-36.693-89.6 0.357-120.785-33.681-239.181-98.133-341.333v-2.987c-3.932-6.131-9.369-11.153-15.792-14.588-6.423-3.439-13.618-5.171-20.902-5.039v-1.707zM811.098 142.507c-3.972-0.414-7.979-0.414-11.947 0-5.419 1.523-10.483 4.105-14.899 7.595-4.416 3.486-8.098 7.817-10.833 12.732-2.735 4.919-4.471 10.33-5.107 15.919-0.64 5.594-0.162 11.255 1.399 16.661 27.904 95.074 42.266 193.609 42.667 292.693 0.768 52.959-12.561 105.17-38.622 151.281s-63.91 84.461-109.679 111.122c-45.764 26.66-97.796 40.671-150.763 40.596-52.962-0.076-104.955-14.234-150.645-41.025-4.87-2.821-10.249-4.651-15.829-5.384s-11.249-0.355-16.683 1.112c-5.433 1.467-10.522 3.995-14.975 7.438s-8.179 7.732-10.967 12.621c-5.562 9.797-7.025 21.396-4.067 32.268s10.095 20.131 19.854 25.759c88.161 50.88 192.915 64.674 291.244 38.352 98.325-26.322 182.178-90.607 233.131-178.726 33.169-58.523 50.385-124.732 49.92-192 0.414-106.85-13.943-213.244-42.667-316.16-2.487-8.87-7.782-16.7-15.087-22.315-7.309-5.615-16.235-8.713-25.446-8.832v-1.707zM126.296 262.4c-6.357 0.038-12.625 1.493-18.347 4.267-9.864 5.188-17.306 14.029-20.734 24.636-3.429 10.603-2.572 22.131 2.388 32.111 24.79 52.54 37.336 110.016 36.693 168.107-0.075 67.384 17.583 133.601 51.2 192 5.658 10.185 15.13 17.704 26.332 20.905s23.217 1.82 33.401-3.838c10.185-5.658 17.704-15.13 20.905-26.332s1.82-23.217-3.838-33.401c-27.142-45.144-41.862-96.664-42.667-149.333 0.198-70.955-15.857-141.013-46.933-204.8-3.458-7.262-8.898-13.397-15.692-17.698-6.794-4.305-14.666-6.601-22.708-6.622z" />
<glyph unicode="&#xe933;" glyph-name="fire" d="M866.564 552.107c-19.776 46.845-48.798 89.219-85.333 124.587-34.842 32.217-72.866 60.809-113.493 85.333-46.050 28.37-88.96 61.552-128 98.987-7.441 7.38-17.335 11.764-27.802 12.315s-20.77-2.77-28.945-9.328c-77.045-64.521-126.377-156.16-137.813-256-15.238 16.139-27.128 35.135-34.987 55.893-2.622 6.583-6.842 12.41-12.28 16.954s-11.922 7.662-18.867 9.072c-6.919 1.446-14.090 1.151-20.867-0.86s-12.948-5.674-17.96-10.66c-72.252-72.026-112.933-169.805-113.093-271.825-0.16-102.016 40.214-199.923 112.239-272.175s169.804-112.934 271.825-113.092c102.020-0.162 199.923 40.213 272.175 112.239 54.071 53.474 91.046 121.805 106.24 196.318 15.194 74.517 7.915 151.868-20.907 222.242h-2.133zM787.631 290.987c-14.682-36.092-36.442-68.881-64-96.427-52.548-53.12-123.098-84.617-197.73-88.269-74.628-3.652-147.918 20.8-205.403 68.535-57.485 47.731-94.989 115.281-105.112 189.312s7.872 149.167 50.432 210.581c26.557-34.156 60.366-61.99 98.987-81.493 6.528-3.29 13.791-4.847 21.093-4.523s14.399 2.517 20.609 6.374c6.211 3.853 11.326 9.237 14.857 15.637s5.358 13.602 5.307 20.911c-3.401 88.178 27.14 174.304 85.333 240.64 35.234-29.971 72.593-57.35 111.787-81.92 35.52-21.423 68.945-46.136 99.84-73.813 27.618-27.75 49.506-60.658 64.427-96.853 14.498-36.348 21.606-75.221 20.907-114.347 0.644-39.164-6.609-78.050-21.333-114.347v0zM654.080 456.96c-15.445 23.356-36.399 42.547-61.013 55.893-24.866 13.15-52.514 20.173-80.64 20.48-9.306 0.486-18.513-2.086-26.219-7.326-7.701-5.239-13.483-12.855-16.448-21.687l-33.28-98.987h-54.188c-11.316 0-22.168-4.497-30.17-12.497s-12.497-18.854-12.497-30.17c-0.045-36.582 11.666-72.213 33.406-101.632 21.74-29.423 52.358-51.081 87.343-61.781 16.166-4.975 33.003-7.42 49.92-7.253 11.021-0.085 22.025 0.917 32.853 2.987 27.507 5.393 53.265 17.476 74.995 35.187s38.758 40.503 49.591 66.359c10.982 25.98 15.518 54.234 13.227 82.347-2.436 27.836-11.665 54.647-26.88 78.080v0zM590.507 328.96c-5.291-12.898-13.811-24.213-24.747-32.853-10.893-8.905-23.774-15.053-37.547-17.92-14.187-2.773-28.83-2.039-42.667 2.133v0c-13.321 4.224-25.455 11.533-35.413 21.333-5.15 5.491-9.728 11.499-13.653 17.92h31.147c8.87 0.064 17.502 2.897 24.691 8.094 7.185 5.201 12.574 12.514 15.415 20.919l32 93.44 11.093-4.693c12.254-6.763 22.656-16.431 30.293-28.16 7.787-11.703 12.561-25.148 13.901-39.142s-0.798-28.105-6.221-41.071h1.707zM472.222 504.341c5.888 17.399 22.255 29.079 40.623 28.992 28.032-0.137 55.599-7.172 80.265-20.493 24.67-13.316 45.675-32.508 61.163-55.872 15.492-23.364 24.986-50.185 27.648-78.089 2.662-27.908-1.587-56.038-12.382-81.911-10.79-25.873-27.789-48.687-49.489-66.432-21.705-17.741-47.445-29.867-74.944-35.298-27.503-5.436-55.919-4.011-82.739 4.147s-51.217 22.793-71.036 42.62c-33.334 33.293-49.997 77.060-49.997 120.661 0 23.565 19.103 42.667 42.667 42.667h54.724l33.498 99.008zM541.474 442.761l-31.723-93.769c-5.867-17.327-22.123-28.992-40.418-28.992h-31.266c3.652-6.306 8.179-12.241 13.581-17.634l0.030-0.030c9.911-9.911 22.11-17.229 35.52-21.308s27.618-4.791 41.365-2.074c13.751 2.714 26.62 8.777 37.474 17.647 10.85 8.875 19.349 20.279 24.747 33.216 5.393 12.937 7.522 27.004 6.191 40.956s-6.080 27.362-13.824 39.044c-7.744 11.682-18.249 21.278-30.583 27.938-3.584 1.937-7.292 3.605-11.093 5.005z" />
<glyph unicode="&#xe934;" glyph-name="fire_solid" d="M601.963 855.86c-14.182 3.789-29.338 1.278-41.574-6.863-17.715-11.827-31.437-28.567-42.086-45.053-10.957-16.947-20.634-36.507-29.184-57.14-17.101-41.165-31.437-90.522-42.957-139.981-14.643-62.771-25.497-128.972-31.436-183.296-24.781 16.742-39.168 35.482-48.384 54.63-16.794 34.867-20.378 78.54-20.378 135.884 0 20.685-12.442 39.375-31.59 47.259-19.149 7.936-41.165 3.584-55.808-11.059-69.939-69.99-104.96-161.793-104.96-253.441s35.021-183.45 104.96-253.44c139.981-139.93 366.899-139.93 506.88 0 69.939 69.99 104.96 161.792 104.96 253.44s-35.021 183.45-104.96 253.441c-30.31 30.259-50.176 50.431-69.018 75.109-18.586 24.371-37.069 54.427-61.798 103.938-6.605 13.158-18.483 22.834-32.666 26.572zM620.599 185.805c-59.955-60.006-157.235-60.006-217.19 0-30.003 29.952-45.005 69.274-45.005 108.595 0 0 45.005-25.6 128-25.6 0 51.2 25.6 204.8 64 230.4 25.6-51.2 40.243-66.202 70.195-96.205 30.003-29.952 45.005-69.274 45.005-108.595s-15.002-78.643-45.005-108.595z" />
<glyph unicode="&#xe935;" glyph-name="hashtag" d="M479.68 830.726c22.861-5.715 36.762-28.88 31.044-51.741l-40.077-160.318h168.038l45.257 181.015c5.713 22.86 28.877 36.759 51.738 31.044s36.762-28.88 31.044-51.741l-40.077-160.318h126.686c23.565 0 42.667-19.103 42.667-42.667s-19.102-42.667-42.667-42.667h-148.019l-42.667-170.667h105.353c23.565 0 42.667-19.102 42.667-42.667s-19.102-42.667-42.667-42.667h-126.686l-45.257-181.013c-5.713-22.861-28.877-36.762-51.738-31.044-22.861 5.713-36.762 28.877-31.044 51.738l40.077 160.32h-168.039l-45.254-181.013c-5.715-22.861-28.88-36.762-51.741-31.044-22.86 5.713-36.759 28.877-31.044 51.738l40.079 160.32h-126.687c-23.564 0-42.667 19.102-42.667 42.667s19.103 42.667 42.667 42.667h148.020l42.667 170.667h-105.353c-23.564 0-42.667 19.103-42.667 42.667s19.103 42.667 42.667 42.667h126.687l45.256 181.015c5.713 22.86 28.877 36.759 51.738 31.044zM449.314 533.333l-42.668-170.667h168.039l42.667 170.667h-168.038z" />
<glyph unicode="&#xe936;" glyph-name="heart" d="M510.289 48.213c-5.645 0.021-11.23 1.165-16.431 3.362-5.197 2.197-9.911 5.406-13.862 9.438l-325.973 327.68c-21.996 21.619-39.409 47.45-51.2 75.947-23.319 57.604-23.319 122.022 0 179.627v0c14.667 35.907 38.005 67.62 67.928 92.3s65.497 41.558 103.539 49.124c38.042 7.567 77.367 5.585 114.456-5.767s70.787-31.721 98.077-59.283l26.453-26.453 26.027 26.453c21.559 22.8 47.475 41.045 76.215 53.654 28.736 12.609 59.708 19.326 91.085 19.754 31.381 0.428 62.524-5.442 91.593-17.262 29.073-11.82 55.475-29.351 77.649-51.555 22.178-22.204 39.671-48.63 51.456-77.715s17.613-60.238 17.143-91.615c-0.465-31.377-7.223-62.341-19.87-91.064-12.646-28.719-30.925-54.609-53.751-76.143l-327.68-327.68c-4.25-4.352-9.378-7.744-15.044-9.954-5.666-2.206-11.738-3.179-17.809-2.846zM319.996 704c-19.644 0.094-39.099-3.826-57.173-11.52-18.191-7.499-34.721-18.519-48.64-32.427-13.896-13.764-24.919-30.153-32.427-48.213v0c-7.866-18.070-12.21-37.475-12.8-57.173 0.505-19.709 4.853-39.13 12.8-57.173 7.692-17.583 18.702-33.519 32.427-46.933l298.667-298.667 298.667 298.667c13.918 13.837 24.964 30.293 32.503 48.414 7.539 18.125 11.418 37.558 11.418 57.186s-3.878 39.062-11.418 57.185c-7.539 18.123-18.586 34.577-32.503 48.415-28.783 27.341-66.965 42.586-106.667 42.586s-77.884-15.244-106.667-42.586l-56.32-58.027c-7.996-7.947-18.807-12.407-30.080-12.407s-22.084 4.461-30.080 12.407l-56.747 56.32c-13.842 13.802-30.211 24.812-48.213 32.427-17.967 7.559-37.255 11.475-56.747 11.52v0z" />
<glyph unicode="&#xe937;" glyph-name="heart_solid" d="M162.4 695.194c38.406 38.394 90.488 59.963 144.794 59.963s106.388-21.568 144.796-59.963l60.006-59.955 60.006 59.955c18.889 19.561 41.489 35.163 66.475 45.896s51.861 16.383 79.053 16.62c27.196 0.236 54.161-4.945 79.33-15.243s48.038-25.504 67.268-44.734c19.226-19.229 34.436-42.095 44.732-67.265s15.479-52.137 15.245-79.33c-0.239-27.195-5.888-54.066-16.623-79.052-10.731-24.99-26.334-47.586-45.892-66.479l-349.594-349.645-349.596 349.645c-38.394 38.404-59.962 90.487-59.962 144.794s21.568 106.388 59.962 144.794v0z" />
<glyph unicode="&#xe938;" glyph-name="home" d="M481.83 862.17c16.661 16.662 43.678 16.662 60.339 0l384-384c16.661-16.661 16.661-43.678 0-60.339s-43.678-16.661-60.339 0l-12.497 12.497v-323.661c0-22.63-8.99-44.335-24.994-60.339s-37.709-24.994-60.339-24.994h-512c-22.632 0-44.337 8.99-60.34 24.994s-24.994 37.709-24.994 60.339v323.661l-12.497-12.497c-16.663-16.661-43.677-16.661-60.34 0s-16.662 43.678 0 60.339l384 384zM256 515.661v-408.994h128v170.667c0 22.63 8.99 44.335 24.994 60.339s37.709 24.994 60.34 24.994h85.333c22.63 0 44.335-8.99 60.339-24.994s24.994-37.709 24.994-60.339v-170.667h128v408.994l-256 256-256-256zM554.667 106.667v170.667h-85.333v-170.667h85.333z" />
<glyph unicode="&#xe939;" glyph-name="key" d="M699.354 780.663c-29.436 8.526-60.361 10.611-90.675 6.111s-59.302-15.477-84.992-32.185c-25.69-16.709-47.479-38.756-63.881-64.641-16.405-25.885-27.042-55.001-31.181-85.365-4.143-30.364-1.694-61.264 7.181-90.599 4.553-15.057 0.452-31.398-10.671-42.522l-254.464-254.464-0.005-110.332h85.333v42.667c0 23.565 19.103 42.667 42.667 42.667h42.667v42.667c0 23.565 19.103 42.667 42.667 42.667h67.661l83.802 83.802c11.136 11.136 27.499 15.232 42.564 10.658 31.885-9.681 65.591-11.759 98.423-6.063 32.832 5.692 63.876 18.999 90.637 38.848 26.765 19.853 48.508 45.696 63.484 75.46 14.972 29.76 22.767 62.609 22.763 95.921zM426.667 192v-42.667c0-23.565-19.103-42.667-42.667-42.667h-42.667v-42.667c0-23.565-19.103-42.667-42.667-42.667h-128c-22.632 0-44.337 8.99-60.34 24.994s-24.994 37.709-24.994 60.339v110.336c0.005 22.626 8.997 44.335 24.998 60.335 0.002 0-0.001 0 0 0l237.318 237.316c-6.96 33.307-8.192 67.622-3.576 101.461 5.798 42.51 20.687 83.272 43.652 119.511s53.469 67.106 89.437 90.498c35.964 23.392 76.548 38.76 118.989 45.059 42.436 6.299 85.734 3.381 126.946-8.556 41.207-11.937 79.364-32.612 111.863-60.618 32.503-28.006 58.59-62.687 76.484-101.68s27.179-81.385 27.221-124.288c0.013-46.65-10.901-92.683-31.868-134.356s-51.405-77.854-88.875-105.647c-37.47-27.789-80.926-46.417-126.891-54.387-37.333-6.473-75.473-5.773-112.397 1.98l-79.134-79.134c-8-8-18.854-12.497-30.17-12.497h-42.667zM699.354 780.663c29.436-8.527 56.691-23.294 79.906-43.299zM779.26 737.364c23.215-20.004 41.847-44.776 54.63-72.628zM597.333 661.333c0 23.564 19.102 42.667 42.667 42.667 33.946 0 66.505-13.486 90.509-37.49s37.491-56.562 37.491-90.51c0-23.564-19.102-42.667-42.667-42.667s-42.667 19.103-42.667 42.667c0 11.316-4.497 22.168-12.497 30.17s-18.854 12.497-30.17 12.497c-23.565 0-42.667 19.103-42.667 42.667zM833.89 664.736c12.779-27.843 19.409-58.141 19.443-88.777z" />
<glyph unicode="&#xe93a;" glyph-name="library" d="M494.677 870.989c11.029 4.903 23.625 4.903 34.654 0l384-170.667c18.415-8.184 28.595-28.135 24.41-47.846-4.181-19.712-21.585-33.809-41.737-33.809h-768c-20.151 0-37.554 14.098-41.737 33.809s5.995 39.663 24.409 47.846l384.002 170.667zM329.059 704h365.892l-182.946 81.309-182.946-81.309zM85.338 533.333c0 23.564 19.102 42.667 42.667 42.667h768c23.565 0 42.667-19.103 42.667-42.667s-19.102-42.667-42.667-42.667v-384c23.565 0 42.667-19.102 42.667-42.667s-19.102-42.667-42.667-42.667h-768c-23.564 0-42.667 19.102-42.667 42.667s19.102 42.667 42.667 42.667v384c-23.564 0-42.667 19.102-42.667 42.667zM213.338 490.667v-384h597.333v384h-597.333zM341.338 405.333c23.564 0 42.667-19.102 42.667-42.667v-128c0-23.565-19.103-42.667-42.667-42.667s-42.667 19.102-42.667 42.667v128c0 23.565 19.102 42.667 42.667 42.667zM512.004 405.333c23.565 0 42.667-19.102 42.667-42.667v-128c0-23.565-19.102-42.667-42.667-42.667s-42.667 19.102-42.667 42.667v128c0 23.565 19.102 42.667 42.667 42.667zM682.671 405.333c23.565 0 42.667-19.102 42.667-42.667v-128c0-23.565-19.102-42.667-42.667-42.667s-42.667 19.102-42.667 42.667v128c0 23.565 19.102 42.667 42.667 42.667z" />
<glyph unicode="&#xe93b;" glyph-name="lightning-bolt" d="M569.011 872.183c16.986-6.063 28.322-22.15 28.322-40.183v-256h256c16.486 0 31.497-9.498 38.558-24.396 7.057-14.898 4.902-32.53-5.534-45.288l-384-469.333c-11.422-13.961-30.383-19.23-47.369-13.167-16.981 6.063-28.322 22.148-28.322 40.183v256h-256c-16.486 0-31.497 9.498-38.557 24.397-7.060 14.895-4.905 32.529 5.534 45.286l384.002 469.335c11.418 13.958 30.379 19.228 47.364 13.165zM260.704 405.333h208.629c23.565 0 42.667-19.102 42.667-42.667v-179.14l251.298 307.14h-208.631c-23.565 0-42.667 19.102-42.667 42.667v179.14l-251.296-307.14z" />
<glyph unicode="&#xe93c;" glyph-name="link" d="M575.036 812.684c40.235 38.86 94.123 60.363 150.059 59.877s109.44-22.922 148.996-62.476c39.552-39.554 61.986-93.061 62.473-148.996s-21.013-109.824-59.874-150.059l-0.521-0.529-170.667-170.667c-40.009-39.996-94.263-62.464-150.831-62.464s-110.822 22.464-150.828 62.46c-16.665 16.661-16.669 43.674-0.009 60.339s43.675 16.67 60.34 0.009c24.004-23.996 56.555-37.474 90.496-37.474 33.937 0 66.487 13.478 90.492 37.47 0 0-0.004 0 0 0l170.385 170.387c23.164 24.114 35.977 56.34 35.686 89.786-0.29 33.561-13.751 65.665-37.487 89.397-23.731 23.732-55.834 37.194-89.395 37.486-33.446 0.291-65.673-12.522-89.788-35.688l-46.652-46.652c-16.661-16.663-43.678-16.663-60.339 0-16.666 16.662-16.666 43.677 0 60.34l47.462 47.453zM318.51 556.169c40.006 39.994 94.258 62.461 150.828 62.461 56.567 0 110.818-22.467 150.827-62.461 16.666-16.66 16.67-43.674 0.009-60.34s-43.674-16.67-60.339-0.009c-24.004 23.996-56.555 37.474-90.496 37.474s-66.489-13.478-90.492-37.47c-0.002 0 0.001 0 0 0l-171.196-171.187c-12.225-11.806-21.976-25.933-28.685-41.549s-10.24-32.41-10.387-49.408c-0.148-16.994 3.091-33.852 9.527-49.579 6.436-15.731 15.94-30.025 27.959-42.044 12.018-12.015 26.31-21.521 42.040-27.959 15.731-6.434 32.586-9.673 49.582-9.523 16.995 0.145 33.792 3.678 49.408 10.385s29.74 16.461 41.548 28.685l0.533 0.542 47.019 46.976c16.67 16.657 43.686 16.644 60.339-0.026 16.657-16.67 16.644-43.686-0.026-60.339l-46.767-46.724c-19.622-20.241-43.062-36.39-68.967-47.518-26.028-11.183-54.021-17.067-82.348-17.314-28.326-0.243-56.418 5.154-82.636 15.881s-50.037 26.569-70.068 46.596c-20.030 20.032-35.871 43.849-46.598 70.067s-16.124 54.31-15.878 82.637c0.246 28.326 6.131 56.32 17.312 82.347 11.129 25.907 27.283 49.353 47.527 68.975l170.424 170.424z" />
<glyph unicode="&#xe93d;" glyph-name="location-marker" d="M512 789.321c59.072 0 116.813-17.516 165.931-50.333 49.114-32.817 87.394-79.462 109.999-134.035 22.609-54.573 28.523-114.623 16.998-172.56-11.52-57.933-39.966-111.151-81.732-152.922 0 0 0 0 0 0l-181.052-181.047c-3.951-3.959-8.649-7.1-13.815-9.242-5.171-2.146-10.714-3.247-16.307-3.247s-11.136 1.101-16.303 3.247c-5.171 2.142-9.886 5.299-13.841 9.259l-181.076 181.035c-0.002 0 0.001 0 0 0-41.766 41.771-70.208 94.985-81.73 152.917-11.523 57.937-5.607 117.987 16.998 172.56s60.887 101.218 110.002 134.035c49.115 32.817 106.861 50.333 165.929 50.333zM783.535 219.132c53.705 53.705 90.274 122.129 105.088 196.617s7.211 151.695-21.854 221.861c-29.065 70.166-78.285 130.137-141.431 172.331s-137.391 64.714-213.338 64.714c-75.947 0-150.189-22.521-213.337-64.714s-112.367-102.165-141.431-172.331c-29.065-70.166-36.67-147.374-21.855-221.861s51.386-142.912 105.087-196.617l181.063-181.022c11.881-11.891 25.986-21.325 41.513-27.759 15.531-6.438 32.175-9.749 48.981-9.749 16.811 0 33.451 3.311 48.981 9.749 15.522 6.434 29.623 15.863 41.498 27.746-0.004-0.004 0.004 0.004 0 0l181.035 181.035zM512 576c-22.63 0-44.335-8.99-60.339-24.994s-24.994-37.709-24.994-60.34c0-22.63 8.99-44.335 24.994-60.339s37.709-24.994 60.339-24.994c22.63 0 44.335 8.99 60.339 24.994s24.994 37.709 24.994 60.339c0 22.63-8.99 44.337-24.994 60.34s-37.709 24.994-60.339 24.994zM391.32 611.346c32.006 32.006 75.415 49.987 120.68 49.987s88.674-17.981 120.678-49.987c32.009-32.006 49.988-75.416 49.988-120.68s-17.98-88.674-49.988-120.678c-32.004-32.009-75.413-49.988-120.678-49.988s-88.673 17.98-120.68 49.988c-32.006 32.004-49.987 75.413-49.987 120.678s17.981 88.673 49.987 120.68z" />
<glyph unicode="&#xe93e;" glyph-name="lock-closed" d="M361.151 812.183c40.008 40.008 94.269 62.484 150.849 62.484s110.844-22.476 150.848-62.484c40.009-40.008 62.485-94.27 62.485-150.849v-128h42.667c33.95 0 66.505-13.487 90.509-37.491s37.491-56.559 37.491-90.509v-256c0-33.95-13.487-66.505-37.491-90.509s-56.559-37.491-90.509-37.491h-512c-33.948 0-66.505 13.487-90.51 37.491s-37.49 56.559-37.49 90.509v256c0 33.946 13.486 66.505 37.49 90.509s56.562 37.491 90.51 37.491h42.667v128c0 56.579 22.476 110.842 62.484 150.849zM384 533.333h256v128c0 33.948-13.487 66.505-37.491 90.51s-56.563 37.49-90.509 37.49c-33.946 0-66.505-13.486-90.51-37.49s-37.49-56.562-37.49-90.51v-128zM256 448c-11.316 0-22.168-4.497-30.17-12.497s-12.497-18.854-12.497-30.17v-256c0-11.315 4.495-22.17 12.497-30.17s18.854-12.497 30.17-12.497h512c11.315 0 22.17 4.497 30.17 12.497s12.497 18.854 12.497 30.17v256c0 11.315-4.497 22.17-12.497 30.17s-18.854 12.497-30.17 12.497h-512zM512 362.667c23.565 0 42.667-19.102 42.667-42.667v-85.333c0-23.565-19.102-42.667-42.667-42.667s-42.667 19.102-42.667 42.667v85.333c0 23.565 19.102 42.667 42.667 42.667z" />
<glyph unicode="&#xe93f;" glyph-name="lock-open" d="M512 789.333c-33.946 0-66.505-13.486-90.51-37.49s-37.49-56.562-37.49-90.51v-128h384c33.95 0 66.505-13.487 90.509-37.491s37.491-56.559 37.491-90.509v-256c0-33.95-13.487-66.505-37.491-90.509s-56.559-37.491-90.509-37.491h-512c-33.948 0-66.505 13.487-90.51 37.491s-37.49 56.559-37.49 90.509v256c0 33.946 13.486 66.505 37.49 90.509s56.562 37.491 90.51 37.491h42.667v128c0 56.579 22.476 110.842 62.484 150.849s94.269 62.484 150.849 62.484c56.58 0 110.844-22.476 150.848-62.484 40.009-40.008 62.485-94.27 62.485-150.849 0-23.564-19.102-42.667-42.667-42.667s-42.667 19.103-42.667 42.667c0 33.948-13.487 66.505-37.491 90.51s-56.563 37.49-90.509 37.49zM256 448c-11.316 0-22.168-4.497-30.17-12.497s-12.497-18.854-12.497-30.17v-256c0-11.315 4.495-22.17 12.497-30.17s18.854-12.497 30.17-12.497h512c11.315 0 22.17 4.497 30.17 12.497s12.497 18.854 12.497 30.17v256c0 11.315-4.497 22.17-12.497 30.17s-18.854 12.497-30.17 12.497h-512zM512 362.667c23.565 0 42.667-19.102 42.667-42.667v-85.333c0-23.565-19.102-42.667-42.667-42.667s-42.667 19.102-42.667 42.667v85.333c0 23.565 19.102 42.667 42.667 42.667z" />
<glyph unicode="&#xe940;" glyph-name="map" d="M620.919 827.496c12.011 6.006 26.15 6.006 38.165-0.002l232.393-116.218c14.174-7.082 26.095-17.969 34.428-31.443s12.753-29.002 12.762-44.845v-459.287c-0.009-14.541-3.729-28.86-10.816-41.557-7.083-12.698-17.297-23.373-29.666-31.014s-26.487-11.998-41.011-12.651c-14.528-0.657-28.979 2.411-41.984 8.913l-175.189 87.573-236.919-118.46c-12.013-6.007-26.153-6.007-38.165 0l-232.393 116.22c-14.172 7.078-26.093 17.967-34.428 31.441s-12.753 29.001-12.762 44.847v459.285c0.008 14.54 3.731 28.86 10.816 41.557s17.297 23.374 29.666 31.016c12.369 7.642 26.487 11.997 41.012 12.652s28.977-2.414 41.984-8.913l175.187-87.574 236.922 118.461zM341.333 634.961l-170.667 85.315v-459.22l170.667-85.346v459.252zM426.667 175.701l170.667 85.333v459.263l-170.667-85.333v-459.263zM682.667 720.291v-459.252l170.667-85.316v459.22l-170.667 85.349z" />
<glyph unicode="&#xe941;" glyph-name="microphone" d="M512 832c-22.63 0-44.335-8.99-60.339-24.994s-24.994-37.708-24.994-60.34v-256c0-22.63 8.99-44.335 24.994-60.339s37.709-24.994 60.339-24.994c22.63 0 44.335 8.99 60.339 24.994s24.994 37.709 24.994 60.339v256c0 22.632-8.99 44.337-24.994 60.34s-37.709 24.994-60.339 24.994zM391.32 867.346c32.006 32.006 75.415 49.987 120.68 49.987s88.674-17.981 120.678-49.987c32.009-32.006 49.988-75.416 49.988-120.68v-256c0-45.265-17.98-88.674-49.988-120.678-32.004-32.009-75.413-49.988-120.678-49.988s-88.673 17.98-120.68 49.988c-32.006 32.004-49.987 75.413-49.987 120.678v256c0 45.264 17.981 88.673 49.987 120.68zM213.333 533.333c23.564 0 42.667-19.102 42.667-42.667 0-67.895 26.971-133.009 74.981-181.018 48.009-48.013 113.124-74.982 181.019-74.982s133.009 26.97 181.018 74.982c48.013 48.009 74.982 113.122 74.982 181.018 0 23.565 19.102 42.667 42.667 42.667s42.667-19.102 42.667-42.667c0-90.526-35.964-177.348-99.972-241.361-53.875-53.871-123.9-87.876-198.694-97.297v-88.009h128c23.565 0 42.667-19.102 42.667-42.667s-19.102-42.667-42.667-42.667h-341.333c-23.564 0-42.667 19.102-42.667 42.667s19.103 42.667 42.667 42.667h128v88.009c-74.795 9.421-144.82 43.426-198.692 97.297-64.013 64.013-99.974 150.835-99.974 241.361 0 23.565 19.103 42.667 42.667 42.667z" />
<glyph unicode="&#xe942;" glyph-name="minus-circle" d="M512 789.333c-90.527 0-177.347-35.962-241.359-99.974s-99.974-150.832-99.974-241.359c0-44.826 8.829-89.212 25.982-130.624s42.296-79.040 73.992-110.737c31.695-31.693 69.324-56.836 110.736-73.988 41.413-17.156 85.797-25.984 130.623-25.984s89.212 8.828 130.624 25.984c41.412 17.152 79.040 42.295 110.737 73.988 31.693 31.697 56.836 69.325 73.988 110.737 17.156 41.412 25.984 85.798 25.984 130.624 0 90.527-35.964 177.347-99.972 241.359-64.013 64.013-150.835 99.974-241.361 99.974zM210.301 749.699c80.016 80.015 188.54 124.968 301.699 124.968 113.161 0 221.683-44.952 301.7-124.968 80.013-80.016 124.966-188.54 124.966-301.699 0-56.030-11.038-111.514-32.478-163.277-21.444-51.767-52.868-98.803-92.489-138.423s-86.656-71.044-138.423-92.489c-51.763-21.44-107.247-32.478-163.277-32.478s-111.513 11.038-163.278 32.478c-51.766 21.444-98.801 52.868-138.421 92.489s-71.048 86.656-92.49 138.423c-21.442 51.763-32.478 107.247-32.478 163.277 0 113.159 44.952 221.683 124.968 301.699zM341.333 448c0 23.565 19.103 42.667 42.667 42.667h256c23.565 0 42.667-19.102 42.667-42.667s-19.102-42.667-42.667-42.667h-256c-23.564 0-42.667 19.102-42.667 42.667z" />
<glyph unicode="&#xe943;" glyph-name="newspaper" d="M213.333 746.667h426.667c11.315 0 22.17-4.495 30.17-12.497s12.497-18.854 12.497-30.17v-512c0-14.673 2.522-29.090 7.322-42.667h-476.655c-11.316 0-22.168 4.497-30.17 12.497s-12.497 18.854-12.497 30.17v512c0 11.316 4.495 22.168 12.497 30.17s18.854 12.497 30.17 12.497zM213.333 832c-33.948 0-66.505-13.486-90.51-37.49s-37.49-56.562-37.49-90.51v-512c0-33.946 13.486-66.505 37.49-90.509s56.562-37.491 90.51-37.491h597.333c33.95 0 66.505 13.487 90.509 37.491s37.491 56.559 37.491 90.509v384c0 33.948-13.487 66.505-37.491 90.51s-56.559 37.49-90.509 37.49h-42.667c0 33.948-13.487 66.505-37.491 90.51s-56.563 37.49-90.509 37.49h-426.667zM768 618.667h42.667c11.315 0 22.17-4.495 30.17-12.497s12.497-18.854 12.497-30.17v-384c0-11.315-4.497-22.17-12.497-30.17s-18.854-12.497-30.17-12.497c-11.315 0-22.17 4.497-30.17 12.497s-12.497 18.854-12.497 30.17v426.667zM256 618.667c0 23.564 19.103 42.667 42.667 42.667h256c23.565 0 42.667-19.103 42.667-42.667v-170.667c0-23.565-19.102-42.667-42.667-42.667h-256c-23.564 0-42.667 19.102-42.667 42.667v170.667zM341.333 576v-85.333h170.667v85.333h-170.667zM256 277.333c0-23.565 19.103-42.667 42.667-42.667h256c23.565 0 42.667 19.102 42.667 42.667s-19.102 42.667-42.667 42.667h-256c-23.564 0-42.667-19.102-42.667-42.667z" />
<glyph unicode="&#xe944;" glyph-name="office-building" d="M208.157 837.176c-24.005-24.005-37.49-56.562-37.49-90.51v-640h-42.667c-23.564 0-42.667-19.102-42.667-42.667s19.103-42.667 42.667-42.667h768c23.565 0 42.667 19.102 42.667 42.667s-19.102 42.667-42.667 42.667h-42.667v640c0 33.948-13.487 66.505-37.491 90.51s-56.563 37.49-90.509 37.49h-426.667c-33.948 0-66.505-13.486-90.51-37.49zM256 106.667v640c0 11.316 4.495 22.168 12.497 30.17s18.854 12.497 30.17 12.497h426.667c11.315 0 22.17-4.495 30.17-12.497s12.497-18.854 12.497-30.17v-640h-128v170.667c0 22.63-8.99 44.335-24.994 60.339s-37.709 24.994-60.339 24.994h-85.333c-22.63 0-44.337-8.99-60.34-24.994s-24.994-37.709-24.994-60.339v-170.667h-128zM469.333 106.667v170.667h85.333v-170.667h-85.333zM341.333 661.333c0-23.564 19.103-42.667 42.667-42.667h42.667c23.565 0 42.667 19.103 42.667 42.667s-19.102 42.667-42.667 42.667h-42.667c-23.564 0-42.667-19.103-42.667-42.667zM554.667 661.333c0-23.564 19.102-42.667 42.667-42.667h42.667c23.565 0 42.667 19.103 42.667 42.667s-19.102 42.667-42.667 42.667h-42.667c-23.565 0-42.667-19.103-42.667-42.667zM341.333 490.667c0-23.565 19.103-42.667 42.667-42.667h42.667c23.565 0 42.667 19.102 42.667 42.667s-19.102 42.667-42.667 42.667h-42.667c-23.564 0-42.667-19.102-42.667-42.667zM554.667 490.667c0-23.565 19.102-42.667 42.667-42.667h42.667c23.565 0 42.667 19.102 42.667 42.667s-19.102 42.667-42.667 42.667h-42.667c-23.565 0-42.667-19.102-42.667-42.667z" />
<glyph unicode="&#xe945;" glyph-name="paper-clip" d="M489.698 812.684c40.235 38.86 94.123 60.363 150.059 59.877s109.444-22.922 148.996-62.476c39.552-39.554 61.99-93.061 62.477-148.996s-21.018-109.824-59.878-150.059l-0.124-0.128-273.54-280.875c-0.021-0.021-0.043-0.047-0.068-0.068-11.793-12.194-25.894-21.922-41.481-28.617-15.616-6.707-32.41-10.24-49.408-10.389-16.995-0.145-33.85 3.093-49.581 9.527-15.731 6.438-30.022 15.94-42.041 27.959s-21.522 26.308-27.959 42.039c-6.436 15.731-9.674 32.589-9.527 49.583s3.679 33.792 10.387 49.408c6.655 15.492 16.304 29.513 28.392 41.263l280.767 280.768c16.661 16.663 43.678 16.663 60.339 0 16.666-16.662 16.666-43.677 0-60.34l-281.53-281.523c-4.075-3.934-7.325-8.644-9.562-13.85s-3.413-10.803-3.462-16.469c-0.049-5.666 1.030-11.281 3.176-16.525s5.313-10.010 9.32-14.016c4.006-4.006 8.77-7.172 14.013-9.318s10.862-3.226 16.527-3.174c5.665 0.047 11.263 1.225 16.468 3.46s9.916 5.487 13.85 9.562l0.124 0.128 273.54 280.876c0.021 0.019 0.038 0.039 0.060 0.058 23.279 24.135 36.16 56.443 35.87 89.977-0.294 33.561-13.756 65.665-37.487 89.397s-55.838 37.194-89.399 37.486c-33.357 0.29-65.506-12.456-89.6-35.508l-273.609-280.862c-40.012-40.009-62.493-94.276-62.493-150.861s22.479-110.852 62.49-150.865c40.012-40.013 94.279-62.49 150.864-62.49s110.852 22.477 150.865 62.49l266.999 266.402c16.683 16.644 43.695 16.614 60.339-0.068 16.644-16.678 16.614-43.695-0.068-60.339l-266.931-266.334c-0.004-0.004 0.009 0.004 0 0-56.013-56.004-131.994-87.484-211.204-87.484-79.216 0-155.189 31.467-211.204 87.484-56.015 56.013-87.484 131.989-87.484 211.204 0 79.121 31.392 155.004 87.279 210.999l273.519 280.768c0.303 0.311 0.61 0.616 0.922 0.917z" />
<glyph unicode="&#xe946;" glyph-name="pencil-alt" d="M827.87 787.205c-5.244 2.145-10.859 3.225-16.525 3.175s-11.264-1.226-16.469-3.462c-5.205-2.236-9.916-5.487-13.85-9.562l-0.521-0.529-353.839-353.839v-60.322h60.322l354.368 354.359c4.075 3.936 7.326 8.644 9.562 13.85s3.413 10.804 3.46 16.469c0.051 5.665-1.028 11.284-3.174 16.527s-5.312 10.007-9.318 14.013c-4.006 4.006-8.772 7.174-14.016 9.32zM810.603 875.711c16.994 0.148 33.852-3.091 49.583-9.527s30.020-15.94 42.039-27.959c12.019-12.018 21.521-26.31 27.959-42.040 6.434-15.731 9.673-32.586 9.527-49.582-0.149-16.995-3.682-33.792-10.389-49.408-6.652-15.491-16.303-29.513-28.39-41.263l-366.101-366.102c-8-8-18.854-12.497-30.17-12.497h-120.661c-23.564 0-42.667 19.102-42.667 42.667v120.661c0 11.315 4.495 22.17 12.497 30.17l366.102 366.101c11.75 12.088 25.771 21.737 41.263 28.392 15.616 6.708 32.414 10.24 49.408 10.387zM165.49 751.843c24.005 24.005 56.562 37.49 90.51 37.49h213.333c23.565 0 42.667-19.103 42.667-42.667s-19.102-42.667-42.667-42.667h-213.333c-11.316 0-22.168-4.495-30.17-12.497s-12.497-18.854-12.497-30.17v-469.334c0-11.315 4.495-22.17 12.497-30.17s18.854-12.497 30.17-12.497h469.333c11.315 0 22.17 4.497 30.17 12.497s12.497 18.854 12.497 30.17v213.333c0 23.565 19.102 42.667 42.667 42.667s42.667-19.102 42.667-42.667v-213.333c0-33.946-13.487-66.505-37.491-90.509s-56.559-37.491-90.509-37.491h-469.333c-33.948 0-66.505 13.487-90.51 37.491s-37.49 56.563-37.49 90.509v469.334c0 33.948 13.486 66.505 37.49 90.51z" />
<glyph unicode="&#xe947;" glyph-name="shopping-bag" d="M361.151 812.183c-40.008-40.008-62.484-94.27-62.484-150.849v-42.667h-85.333c-22.191 0-40.676-17.009-42.519-39.123l-42.667-512.002c-0.991-11.887 3.043-23.65 11.121-32.431s19.466-13.777 31.398-13.777h682.667c11.934 0 23.317 4.996 31.398 13.777 8.077 8.781 12.113 20.544 11.119 32.431l-42.667 512.002c-1.839 22.114-20.326 39.123-42.517 39.123h-85.333v42.667c0 56.579-22.477 110.842-62.485 150.849-40.004 40.008-94.268 62.484-150.848 62.484s-110.842-22.476-150.849-62.484zM298.667 533.333v-42.667c0-23.565 19.103-42.667 42.667-42.667s42.667 19.102 42.667 42.667v42.667h256v-42.667c0-23.565 19.102-42.667 42.667-42.667s42.667 19.102 42.667 42.667v42.667h46.076l35.554-426.667h-589.926l35.556 426.667h46.074zM640 618.667h-256v42.667c0 33.948 13.486 66.505 37.49 90.51s56.564 37.49 90.51 37.49c33.95 0 66.505-13.486 90.509-37.49s37.491-56.562 37.491-90.51v-42.667z" />
<glyph unicode="&#xe948;" glyph-name="shopping-cart" d="M85.333 832c0 23.564 19.103 42.667 42.667 42.667h85.333c20.338 0 37.85-14.356 41.838-34.299l10.207-51.034h630.622c14.788 0 28.518-7.657 36.297-20.236 7.774-12.579 8.478-28.286 1.865-41.512l-170.667-341.333c-7.228-14.455-21.999-23.586-38.161-23.586h-408.994l-85.333-85.333h494.327c33.95 0 66.505-13.487 90.509-37.491s37.491-56.559 37.491-90.509c0-33.95-13.487-66.505-37.491-90.509s-56.559-37.491-90.509-37.491c-33.95 0-66.505 13.487-90.509 37.491s-37.491 56.559-37.491 90.509c0 14.673 2.522 29.090 7.322 42.667h-185.309c4.8-13.577 7.32-27.994 7.32-42.667 0-33.95-13.486-66.505-37.49-90.509s-56.562-37.491-90.51-37.491c-33.948 0-66.505 13.487-90.51 37.491s-37.49 56.559-37.49 90.509c0 19.802 4.588 39.13 13.175 56.563-41.802 27.738-54.125 90.829-13.18 131.772l81.688 81.69-73.995 369.975h-50.355c-23.564 0-42.667 19.103-42.667 42.667zM333.645 448h365.321l128 256h-544.521l51.2-256zM298.667 192c-11.316 0-22.168-4.497-30.17-12.497s-12.497-18.854-12.497-30.17c0-11.315 4.495-22.17 12.497-30.17s18.854-12.497 30.17-12.497c11.316 0 22.168 4.497 30.17 12.497s12.497 18.854 12.497 30.17c0 11.315-4.495 22.17-12.497 30.17s-18.854 12.497-30.17 12.497zM725.333 192c-11.315 0-22.17-4.497-30.17-12.497s-12.497-18.854-12.497-30.17c0-11.315 4.497-22.17 12.497-30.17s18.854-12.497 30.17-12.497c11.315 0 22.17 4.497 30.17 12.497s12.497 18.854 12.497 30.17c0 11.315-4.497 22.17-12.497 30.17s-18.854 12.497-30.17 12.497z" />
<glyph unicode="&#xe949;" glyph-name="speakerphone" d="M782.993 871.945c-16.649 6.248-35.426 1.517-47.125-11.872-26.15-29.929-72.474-58.65-136.043-79.855-39.834-13.287-85.21-23.201-134.31-28.685-0.614-0.055-1.229-0.122-1.839-0.203-27.87-3.045-56.931-4.663-86.845-4.663h-78.182c-49.188-0.019-96.859-17.031-134.945-48.158s-64.25-74.456-74.061-122.655c-9.812-48.199-2.67-98.307 20.218-141.848 19.824-37.713 50.397-68.437 87.607-88.491l85.903-246.063c9.348-26.108 27.61-48.081 51.569-62.046s52.078-19.025 79.402-14.289c27.323 4.732 52.104 18.957 69.968 40.166 17.865 21.214 27.669 48.077 27.691 75.81v169.353c31.441-5.572 60.907-13.013 87.842-21.999 63.561-21.201 109.875-49.924 136.026-79.855 11.699-13.389 30.477-18.121 47.125-11.87 16.644 6.246 27.674 22.161 27.674 39.945v133.419c29.269 7.556 56.273 22.827 78.012 44.57 32.004 32.004 49.988 75.413 49.988 120.678 0 45.263-17.984 88.673-49.988 120.679-21.739 21.74-48.742 37.010-78.012 44.568v133.419c0 17.781-11.029 33.698-27.674 39.945zM248.623 415.501c-27.183 11.558-49.508 32.107-63.23 58.21-13.734 26.129-18.020 56.196-12.132 85.12s21.588 54.924 44.442 73.603c22.851 18.675 51.467 28.883 80.978 28.899 0.006 0-0.006 0 0 0h78.149c16.817 0 33.445 0.464 49.835 1.371zM426.665 662.704v-258.74c-16.389 0.905-33.017 1.37-49.835 1.37h-78.228c-17.117-0.026-34.125 3.443-49.98 10.167zM512 394.965v276.738c40.87 6.448 79.45 15.765 114.829 27.566 35.827 11.952 69.163 26.722 98.505 44.163v-420.193c-29.333 17.438-62.665 32.205-98.487 44.156-35.379 11.806-73.967 21.124-114.846 27.571zM298.728 320c0.010 0-0.010 0 0 0h78.103c16.905 0 33.537-0.516 49.835-1.515zM426.665 318.485v-179.362c0 0.009 0-0.009 0 0-0.010-7.629-2.71-15.031-7.625-20.868-4.919-5.837-11.742-9.758-19.266-11.059-7.524-1.306-15.267 0.090-21.865 3.934-6.559 3.823-11.567 9.826-14.155 16.96l-66.999 191.915zM810.667 459.43v147.803c6.404-3.697 12.352-8.242 17.673-13.561 16.004-16.003 24.994-37.708 24.994-60.339s-8.99-44.339-24.994-60.339c-5.321-5.321-11.268-9.865-17.673-13.564z" />
</font>
</defs>
</svg>
